<svg width="14" height="20" viewBox="0 0 14 20" fill="none" xmlns="http://www.w3.org/2000/svg">
<path d="M13 12.999C12.9999 13.9459 12.7756 14.8793 12.3456 15.723C11.9156 16.5666 11.292 17.2965 10.5259 17.8529C9.7597 18.4094 8.87272 18.7766 7.93744 18.9245C7.00216 19.0725 6.04514 18.997 5.14464 18.7042C4.24414 18.4113 3.42573 17.9096 2.75633 17.2398C2.08692 16.5701 1.58554 15.7515 1.29317 14.8508C1.0008 13.9502 0.925743 12.9931 1.07414 12.0579C1.22254 11.1227 1.59018 10.2359 2.147 9.47C4.073 7.132 6.91 6.143 5.995 1C8.35 2.761 11.835 6.38 8.017 10.406C6.881 11.497 7.773 13.173 9.238 12.999C10.12 12.894 11.261 12.033 12.468 10.699C13 11.379 13 12.416 13 12.999Z" stroke="#EF4439" stroke-width="2" stroke-linecap="round" stroke-linejoin="round"/>
</svg>
