<svg width="22" height="22" viewBox="0 0 22 22" fill="none" xmlns="http://www.w3.org/2000/svg">
<path d="M11 22C17.0316 22 22 17.034 22 11.0053C22 4.97657 17.0211 0 11 0C4.96842 0 0 4.97657 0 11.0053C0 17.034 4.96842 22 11 22ZM9.57895 16.5815C9.14737 16.5815 8.8 16.3816 8.48421 16.0134L5.46316 12.373C5.24211 12.1205 5.14737 11.847 5.14737 11.5629C5.14737 10.9527 5.63158 10.4792 6.22105 10.4792C6.57895 10.4792 6.86316 10.6265 7.13684 10.9527L9.54737 13.9407L14.1895 6.55476C14.4421 6.14443 14.7684 5.94452 15.1368 5.94452C15.7158 5.94452 16.2632 6.35485 16.2632 6.96509C16.2632 7.2176 16.1368 7.50167 15.9789 7.75418L10.6421 15.9818C10.3789 16.3711 10 16.5815 9.57895 16.5815Z" fill="#447BFE"/>
</svg>
