<svg width="34" height="34" viewBox="0 0 34 34" fill="none" xmlns="http://www.w3.org/2000/svg">
<path d="M27 24.5V18.25H23.25L19.5 22H14.5L10.75 18.25H7V24.5C7 25.8807 8.11929 27 9.5 27H24.5C25.8807 27 27 25.8807 27 24.5Z" fill="#571CFF" fill-opacity="0.3"/>
<path d="M27 9.5C27 8.11929 25.8807 7 24.5 7H9.5C8.11929 7 7 8.11929 7 9.5M27 9.5V24.5M27 9.5V18.25M27 24.5C27 25.8807 25.8807 27 24.5 27H9.5C8.11929 27 7 25.8807 7 24.5M27 24.5V18.25M7 24.5V9.5M7 24.5V18.25M7 9.5V18.25M7 18.25H10.75L14.5 22H19.5L23.25 18.25H27" stroke="#571CFF" stroke-width="2" stroke-linecap="round" stroke-linejoin="round"/>
</svg>
