<svg width="23" height="23" viewBox="0 0 23 23" fill="none" xmlns="http://www.w3.org/2000/svg">
<path d="M10.6652 1L21.5385 11.8733C21.8357 12.2056 22 12.6357 22 13.0815C22 13.5273 21.8357 13.9574 21.5385 14.2896L14.2896 21.5385C13.9574 21.8357 13.5273 22 13.0815 22C12.6357 22 12.2056 21.8357 11.8733 21.5385L1 10.6652V5.83259C1 4.55091 1.50915 3.32172 2.41543 2.41543C3.32172 1.50915 4.55091 1 5.83259 1H10.6652Z" stroke="#00CE15" stroke-width="2" stroke-linecap="round" stroke-linejoin="round"/>
<path d="M8.24889 10.6652C9.58338 10.6652 10.6652 9.58338 10.6652 8.24889C10.6652 6.91441 9.58338 5.83259 8.24889 5.83259C6.91441 5.83259 5.83259 6.91441 5.83259 8.24889C5.83259 9.58338 6.91441 10.6652 8.24889 10.6652Z" stroke="#00CE15" stroke-width="2" stroke-linecap="round" stroke-linejoin="round"/>
</svg>
