<svg width="20" height="18" viewBox="0 0 20 18" fill="none" xmlns="http://www.w3.org/2000/svg">
<rect x="3" y="5" width="14" height="12" fill="#A4A4A4" fill-opacity="0.3"/>
<path d="M4.51226 18H15.4877C17.4587 18 18.5093 17.0027 18.5093 15.0864V5.34818C19.4797 5.19174 20 4.478 20 3.43183V1.94568C20 0.752852 19.3297 0 18.0991 0H1.90095C0.730365 0 0 0.752852 0 1.94568V3.43183C0 4.478 0.52026 5.19174 1.49075 5.34818V15.0864C1.49075 17.0125 2.54127 18 4.51226 18ZM2.31116 3.90114C1.81091 3.90114 1.61081 3.69582 1.61081 3.20695V2.17056C1.61081 1.68169 1.81091 1.47637 2.31116 1.47637H17.6988C18.1991 1.47637 18.3892 1.68169 18.3892 2.17056V3.20695C18.3892 3.69582 18.1991 3.90114 17.6988 3.90114H2.31116ZM4.49225 16.5236C3.5918 16.5236 3.10155 16.0445 3.10155 15.1646V5.37751H16.8984V15.1646C16.8984 16.0445 16.3982 16.5236 15.5078 16.5236H4.49225ZM6.70335 9.31776H13.3067C13.7269 9.31776 14.027 9.03422 14.027 8.60402V8.29115C14.027 7.86095 13.7269 7.58718 13.3067 7.58718H6.70335C6.28314 7.58718 5.993 7.86095 5.993 8.29115V8.60402C5.993 9.03422 6.28314 9.31776 6.70335 9.31776Z" fill="#A4A4A4"/>
</svg>
