<svg width="21" height="21" viewBox="0 0 21 21" fill="none" xmlns="http://www.w3.org/2000/svg">
<path d="M15.25 15.25V17.625C15.25 18.2549 14.9998 18.859 14.5544 19.3044C14.109 19.7498 13.5049 20 12.875 20H3.375C2.74511 20 2.14102 19.7498 1.69562 19.3044C1.25022 18.859 1 18.2549 1 17.625V8.125C1 7.49511 1.25022 6.89102 1.69562 6.44562C2.14102 6.00022 2.74511 5.75 3.375 5.75H5.75M8.125 1H17.625C18.9367 1 20 2.06332 20 3.375V12.875C20 14.1867 18.9367 15.25 17.625 15.25H8.125C6.81332 15.25 5.75 14.1867 5.75 12.875V3.375C5.75 2.06332 6.81332 1 8.125 1Z" stroke="#447BFE" stroke-width="2" stroke-linecap="round" stroke-linejoin="round"/>
</svg>
