<svg width="24" height="24" viewBox="0 0 24 24" fill="none" xmlns="http://www.w3.org/2000/svg">
<path d="M22 19.5V13.25H18.25L14.5 17H9.5L5.75 13.25H2V19.5C2 20.8807 3.11929 22 4.5 22H19.5C20.8807 22 22 20.8807 22 19.5Z" fill="#571CFF" fill-opacity="0.3"/>
<path d="M22 4.5C22 3.11929 20.8807 2 19.5 2H4.5C3.11929 2 2 3.11929 2 4.5M22 4.5V19.5M22 4.5V13.25M22 19.5C22 20.8807 20.8807 22 19.5 22H4.5C3.11929 22 2 20.8807 2 19.5M22 19.5V13.25M2 19.5V4.5M2 19.5V13.25M2 4.5V13.25M2 13.25H5.75L9.5 17H14.5L18.25 13.25H22" stroke="#571CFF" stroke-width="2.5" stroke-linecap="round" stroke-linejoin="round"/>
</svg>
