<svg width="21" height="19" viewBox="0 0 21 19" fill="none" xmlns="http://www.w3.org/2000/svg">
<path d="M10 10.0001V10.0101M6 10.0001V10.0101M14 10.0001V10.0101M1 18.0001L2.3 14.1001C1.17644 12.4384 0.769993 10.4705 1.15622 8.56238C1.54244 6.65427 2.69506 4.93575 4.39977 3.72635C6.10447 2.51696 8.24526 1.89898 10.4241 1.98732C12.6029 2.07566 14.6715 2.86431 16.2453 4.20664C17.819 5.54896 18.7909 7.35362 18.9801 9.28506C19.1693 11.2165 18.563 13.1433 17.2739 14.7072C15.9848 16.2711 14.1007 17.3657 11.9718 17.7874C9.84293 18.2092 7.6142 17.9294 5.7 17.0001L1 18.0001Z" stroke="#FF9900" stroke-width="2" stroke-linecap="round" stroke-linejoin="round"/>
</svg>
