<svg width="25" height="25" viewBox="0 0 25 25" fill="none" xmlns="http://www.w3.org/2000/svg">
<path d="M24 12.5C24 18.786 18.786 24 12.5 24C6.22567 24 1 18.7853 1 12.5C1 6.22503 6.21532 1 12.4877 1C18.7743 1 24 6.22694 24 12.5ZM1.09559 12.5C1.09559 18.8351 6.16187 23.9167 12.5 23.9167C18.8347 23.9167 23.9301 18.8381 23.9167 12.4979C23.9032 6.17636 18.8255 1.08333 12.4877 1.08333C6.14731 1.08333 1.09559 6.1795 1.09559 12.5ZM19.4289 12.5123C19.4289 16.2992 16.285 19.4534 12.4877 19.4534C8.71305 19.4534 5.54657 16.2972 5.54657 12.5123C5.54657 8.71205 8.69154 5.55882 12.4877 5.55882C16.2614 5.55882 19.4289 8.71405 19.4289 12.5123Z" fill="#FFE600" stroke="#FF9900" stroke-width="2"/>
</svg>
