<svg width="273" height="239" viewBox="0 0 273 239" fill="none" xmlns="http://www.w3.org/2000/svg">
<mask id="path-1-outside-1" maskUnits="userSpaceOnUse" x="0" y="-1" width="273" height="240" fill="black">
<rect fill="white" y="-1" width="273" height="240"/>
<path d="M76.467 235.393C76.0562 235.249 75.5635 235.051 75.027 234.819C74.4989 234.572 73.9312 234.287 73.3633 233.997C69.9248 232.209 66.4082 230.002 63.2361 227.492C51.6463 218.378 42.4767 206.138 37.3071 192.287C34.8114 185.595 33.2829 178.526 32.9207 171.376C32.8268 169.59 32.8064 167.8 32.8738 166.012L32.9107 164.674C32.9229 164.226 32.9722 163.78 33.003 163.336C33.0785 162.447 33.1213 161.55 33.2293 160.663C33.6051 157.105 34.3153 153.58 35.2704 150.131L35.6425 148.84C35.7618 148.408 35.8907 147.98 36.0431 147.56L36.9241 145.024L37.9328 142.535C38.266 141.706 38.6749 140.906 39.0458 140.089C40.5964 136.859 42.4185 133.759 44.4825 130.832C47.9922 125.889 52.2391 121.497 56.9791 117.731C56.1751 117.217 55.3677 116.721 54.544 116.259C51.9805 114.801 49.2807 113.655 46.4779 113.051C43.6757 112.456 40.7804 112.411 38.1354 113.229C35.4843 114.025 33.1227 115.649 31.218 117.769C28.3704 120.917 26.4048 124.925 24.9183 129.063C23.1388 134.082 22.0179 139.366 21.2042 144.69C20.3956 150.023 19.9093 155.417 19.5764 160.829C19.4412 162.99 19.2771 165.415 19.0675 167.216C18.9218 168.442 18.6342 168.981 18.4176 169.336C18.3715 169.408 18.3046 167.33 18.3529 166.235C18.5459 161.717 18.9028 157.165 19.2942 152.716C19.6834 148.236 20.235 143.767 21.0574 139.35C21.894 134.937 22.9867 130.563 24.6365 126.382C25.0478 125.337 25.4971 124.308 25.9938 123.298C26.4813 122.29 27.0208 121.301 27.6136 120.35C28.7844 118.435 30.2043 116.66 31.8771 115.155C33.5652 113.671 35.5395 112.473 37.71 111.806C38.7904 111.468 39.911 111.251 41.0383 111.136C42.1713 111.039 43.3073 111.057 44.4432 111.143C46.2535 111.315 48.0562 111.653 49.7607 112.251C52.8348 113.335 55.6645 114.914 58.3574 116.659C58.7794 116.341 59.1966 116.019 59.6241 115.715C66.8926 110.549 75.2009 106.89 83.8758 104.884C88.2155 103.881 92.6466 103.287 97.09 103.093C101.533 102.894 105.925 103.044 110.303 103.177C114.68 103.318 119.032 103.489 123.365 103.441C124.089 103.435 124.817 103.415 125.54 103.395C119.518 92.5156 113.827 81.4856 107.724 70.7084C104.34 64.6873 100.789 58.774 97.0158 53.0088C96.6977 52.5182 96.3798 52.0322 96.0574 51.5466C95.1338 52.1645 94.2257 52.8091 93.3332 53.4803C91.772 54.6468 90.2618 55.8883 88.7779 57.1787C85.6437 59.8949 82.6323 62.7965 79.5438 65.6479C76.4553 68.4993 73.2429 71.2897 69.7982 73.7728C66.3632 76.2645 62.7317 78.5019 58.9154 80.3828C55.0942 82.2594 51.0842 83.7889 46.9187 84.7759C41.0429 86.1328 34.8803 86.4904 28.8835 85.2245C22.9294 83.9053 17.3701 81.0075 12.8327 76.9509C11.7048 75.9283 10.6372 74.8418 9.64749 73.6765C8.66668 72.5061 7.76465 71.2705 6.95547 69.9736C5.35917 67.3646 4.12879 64.4966 3.511 61.4733C2.85216 58.4573 2.85305 55.3013 3.3835 52.2719C3.91793 49.2331 5.01408 46.3187 6.49513 43.6463C9.47927 38.2862 13.8802 33.9207 18.7265 30.369C21.1565 28.5928 23.7333 27.0142 26.3913 25.6192C29.0493 24.2243 31.7965 22.9939 34.6212 21.9612C40.2608 19.8872 46.258 18.6236 52.3311 18.5898C58.3853 18.5481 64.5351 19.8269 69.9808 22.5386C73.7719 24.3589 77.2716 26.7281 80.4554 29.4175C83.6352 32.1164 86.5216 35.1247 89.192 38.2854C91.9076 41.503 94.393 44.8693 96.7458 48.3226C97.2995 47.973 97.8404 47.6381 98.3558 47.3372C100.711 45.9021 103.217 44.7152 105.792 43.7495C108.373 42.7927 111.028 42.0613 113.71 41.5171C119.086 40.4324 124.532 40.0435 129.998 40.183C132.573 40.2632 135.144 40.5002 137.698 40.8996C136.997 36.1772 136.869 31.3342 137.581 26.5008C138.261 21.9504 139.752 17.3885 142.497 13.5229C143.861 11.6 145.533 9.86416 147.448 8.46257C149.352 7.03864 151.496 5.97216 153.701 5.18739C158.137 3.62064 162.781 3.17826 167.316 3.03791L169.02 3L170.718 3.00856L174.115 3.03028L179.204 3.24986C179.769 3.28656 180.33 3.33732 180.896 3.38319L184.282 3.65903C185.406 3.77431 186.532 3.92629 187.652 4.05564C189.904 4.28591 192.133 4.71126 194.369 5.05313C198.82 5.89036 203.255 6.83461 207.598 8.13503C209.787 8.72425 211.925 9.47335 214.076 10.1894L214.882 10.4591L219.651 12.2753L220.43 12.6113C222.509 13.5163 224.605 14.3834 226.624 15.4122L228.153 16.1551C228.663 16.4028 229.173 16.6504 229.666 16.9314L232.652 18.5603C237.424 21.2792 242.015 24.3187 246.355 27.6879C250.678 31.0813 254.749 34.8459 258.28 39.1112C261.807 43.3676 264.786 48.1482 266.699 53.3995C268.601 58.6376 269.446 64.2905 268.903 69.8731C268.41 74.7429 266.821 79.5693 263.94 83.6188C261.067 87.6447 257.055 90.8284 252.458 92.6913C250.161 93.6157 247.713 94.1999 245.222 94.3446C242.732 94.5031 240.195 94.1579 237.83 93.4006C235.456 92.6439 233.249 91.4892 231.21 90.1484C229.166 88.8034 227.28 87.2775 225.466 85.7055C222.268 82.9434 219.269 79.9793 216.012 77.5021C214.373 76.2871 212.62 75.2271 210.777 74.3527C208.94 73.4825 207.012 72.7887 205.044 72.3832C203.075 71.9777 201.055 71.8519 199.116 72.1679C197.175 72.4747 195.339 73.2491 193.827 74.4676C193.06 75.0708 192.415 75.7903 191.829 76.5612C191.569 76.9698 191.272 77.3578 191.066 77.7998C190.955 78.019 190.826 78.2256 190.734 78.4481L190.451 79.1255C189.731 80.9464 189.475 82.9534 189.531 84.9355C189.607 86.6536 189.949 88.3634 190.544 89.9738C190.622 90.1761 190.686 90.3792 190.768 90.5765L191.032 91.1627C191.192 91.5577 191.424 91.9341 191.633 92.312C191.847 92.6896 192.048 93.0773 192.275 93.4494L193.391 95.0625L194.643 96.5746C194.941 96.896 195.252 97.2028 195.559 97.519C195.865 97.8352 196.167 98.1518 196.504 98.4338L197.493 99.3089C197.826 99.5958 198.189 99.853 198.534 100.13C199.221 100.688 199.964 101.174 200.693 101.679C203.65 103.656 206.87 105.274 210.112 106.877C213.358 108.479 216.666 110.027 219.836 111.939C223.765 114.317 227.424 117.146 230.635 120.464C233.041 122.974 235.188 125.75 236.919 128.792C238.649 131.83 239.956 135.159 240.559 138.658C241.17 142.147 241.077 145.788 240.186 149.242C239.339 152.716 237.664 155.944 235.504 158.744C234.105 160.623 232.442 162.28 230.673 163.792C228.914 165.322 226.969 166.615 224.959 167.769L223.432 168.606L221.857 169.35C221.339 169.614 220.789 169.811 220.25 170.031C219.71 170.241 219.177 170.479 218.62 170.644C216.43 171.442 214.142 171.933 211.862 172.34C210.715 172.498 209.569 172.684 208.411 172.75C207.257 172.872 206.095 172.884 204.939 172.918C202.623 172.908 200.301 172.812 198.009 172.478L197.149 172.369L196.295 172.222L194.587 171.919C193.462 171.656 192.323 171.445 191.213 171.117C188.97 170.545 186.788 169.771 184.643 168.926C178.196 166.34 172.304 162.593 166.931 158.315C165.666 157.315 164.431 156.272 163.23 155.199C162.714 156.048 162.159 156.877 161.547 157.672C160.781 158.658 159.958 159.61 159.022 160.464C158.576 160.908 158.066 161.296 157.581 161.701C157.066 162.075 156.56 162.459 156.01 162.785C153.853 164.161 151.372 165.01 148.888 165.403C146.39 165.797 143.869 165.755 141.42 165.408C140.2 165.23 138.97 164.984 137.8 164.659C137.217 164.495 136.622 164.35 136.043 164.171L134.314 163.616C129.736 162.036 125.425 159.886 121.283 157.577C116.18 154.737 111.29 151.704 106.194 149.061C101.054 146.357 95.9828 143.519 90.9823 140.562C80.9906 134.647 71.2847 128.164 62.0184 121.211C60.9912 120.458 59.9599 119.715 58.921 118.995C56.2468 121.059 53.7338 123.329 51.4171 125.78C46.5946 130.892 42.7284 136.872 39.9349 143.311C36.5886 151.1 34.9628 159.591 34.9604 168.078L34.9463 168.074C34.9687 175.67 36.3692 183.249 38.9053 190.417C41.4375 197.595 45.1181 204.348 49.6026 210.486C55.9392 219.124 63.8382 226.614 73.0125 232.232C75.5492 233.776 77.3978 234.885 77.6562 235.448C77.7825 235.758 77.2887 235.684 76.467 235.393ZM84.591 36.6379C79.9602 31.6475 74.6048 27.2852 68.5001 24.4416C65.4506 23.0288 62.2372 22 58.9266 21.4612C55.6201 20.913 52.2328 20.8215 48.8799 21.1148C44.4873 21.5223 40.1439 22.5393 35.9811 24.0605C34.9344 24.4193 33.9115 24.8595 32.8818 25.2679C32.3702 25.4857 31.869 25.7212 31.3623 25.9433C30.8555 26.1654 30.3497 26.4012 29.8586 26.6499C27.8542 27.6012 25.9147 28.6958 24.0292 29.8421C22.1395 30.9932 20.3515 32.2897 18.6137 33.6475C16.8908 35.0227 15.282 36.5194 13.7616 38.0979C12.2706 39.7021 10.9157 41.4125 9.7104 43.2238C8.54334 45.0555 7.56752 46.9899 6.8139 49.0066C5.88136 51.6016 5.38092 54.3848 5.4825 57.1332C5.54764 59.8886 6.21052 62.6141 7.28206 65.17C9.47199 70.2926 13.3451 74.6322 17.884 77.9377C19.197 78.8976 20.8273 79.7721 22.4024 80.5074C24.5714 81.508 26.8384 82.3132 29.1643 82.8197C30.3253 83.0799 31.4997 83.261 32.6796 83.3865C33.2692 83.4446 33.8746 83.4602 34.4722 83.4994C35.0693 83.5294 35.6681 83.5869 36.2704 83.5567C43.2663 83.5961 50.2443 81.8122 56.6637 78.8256C63.1022 75.8469 69.0242 71.7457 74.3157 66.9625C78.9543 62.7748 83.2592 58.2819 88.321 54.2877C90.2544 52.7467 92.5441 51.081 94.7536 49.6002C91.6548 45.0394 88.3231 40.6551 84.591 36.6379ZM131.901 42.749C128.012 42.543 124.088 42.7032 120.205 43.1419C116.328 43.5985 112.484 44.357 108.773 45.5169C105.061 46.6768 101.476 48.2109 98.1608 50.2064C98.1253 50.2271 98.0943 50.2476 98.0634 50.268C99.8702 52.9923 101.606 55.7535 103.319 58.5254C111.889 72.5365 119.269 87.1692 127.152 101.46C127.487 102.069 127.822 102.674 128.162 103.278C130.878 103.128 133.573 102.86 136.233 102.413C138.34 102.041 140.431 101.567 142.482 100.977C144.527 100.368 146.527 99.6292 148.463 98.7607C150.404 97.8964 152.244 96.8406 153.994 95.6664C155.086 94.9406 156.117 94.1268 157.093 93.2612C152.771 82.4871 147.67 71.9437 143.45 61.0985C141.331 55.6534 139.558 50.0658 138.323 44.3141C138.262 44.014 138.201 43.7094 138.144 43.409C136.074 43.0746 133.989 42.8611 131.901 42.749ZM129.364 105.443C132.675 111.336 136.091 117.156 139.738 122.824L141.417 125.423C141.976 126.289 142.576 127.13 143.153 127.981L144.902 130.534C145.479 131.39 146.109 132.201 146.713 133.037C149.114 136.386 151.639 139.644 154.311 142.768C156.915 145.827 159.658 148.761 162.574 151.51C162.715 151.206 162.852 150.902 162.984 150.594C163.431 149.528 163.84 148.446 164.173 147.337C164.511 146.227 164.764 145.087 165.064 143.966C165.308 142.83 165.491 141.676 165.711 140.537C165.838 139.377 165.998 138.224 166.102 137.066C166.471 132.416 166.247 127.722 165.62 123.078C164.351 113.781 161.525 104.719 158.138 95.9063C158.066 95.713 157.984 95.5248 157.912 95.3361C157.164 95.9655 156.387 96.5693 155.594 97.1326C152.944 99.0062 150.058 100.513 147.059 101.7C141.396 103.914 135.371 105.032 129.364 105.443ZM158.834 91.5992C160.631 89.7354 162.136 87.6419 163.329 85.3615C164.493 83.0508 165.304 80.5698 165.801 78.0217L165.973 77.0613C166.036 76.744 166.093 76.4223 166.109 76.0988L166.295 74.1562L166.324 72.2055C166.34 71.8819 166.319 71.5562 166.293 71.2308L166.229 70.2583C166.018 67.6691 165.504 65.0997 164.628 62.6553C163.731 60.2217 162.501 57.9157 160.962 55.8373C159.441 53.7485 157.536 51.9199 155.455 50.3607C153.369 48.7927 151.083 47.4866 148.679 46.4277C146.271 45.3692 143.734 44.5909 141.157 43.9902C141.054 43.9647 140.951 43.9438 140.844 43.9232C142.508 52.0103 145.311 59.8708 148.505 67.5675C151.431 74.6367 154.59 81.6631 157.629 88.7618C158.037 89.7072 158.436 90.6532 158.834 91.5992ZM172.264 159.449C175.606 161.796 179.143 163.836 182.851 165.505C186.55 167.193 190.43 168.469 194.389 169.329C198.232 170.178 202.168 170.547 206.087 170.442C209.997 170.343 213.909 169.714 217.584 168.487C221.283 167.286 224.744 165.397 227.834 163.07C229.347 161.866 230.814 160.595 232.074 159.135C232.744 158.441 233.301 157.654 233.893 156.901C234.191 156.522 234.422 156.106 234.691 155.706C234.946 155.302 235.23 154.91 235.437 154.482L236.115 153.221C236.337 152.797 236.497 152.349 236.69 151.917C237.104 151.056 237.334 150.129 237.64 149.233C237.771 148.778 237.851 148.307 237.959 147.849C238.063 147.386 238.171 146.923 238.223 146.449L238.324 145.742L238.384 145.033C238.431 144.56 238.446 144.085 238.457 143.61C238.549 139.807 237.627 136.007 236.032 132.504C234.436 128.992 232.186 125.767 229.553 122.885C226.919 120.003 223.905 117.445 220.657 115.248C219.025 114.148 217.355 113.152 215.588 112.231C213.834 111.3 212.041 110.418 210.226 109.528C206.608 107.751 202.928 105.933 199.461 103.64C197.725 102.496 196.08 101.184 194.524 99.7567C193.016 98.2753 191.609 96.6582 190.462 94.8536C190.157 94.4174 189.926 93.9304 189.656 93.4689C189.4 93.002 189.125 92.5454 188.916 92.0339C188.446 91.0465 188.119 90.0036 187.829 88.9584C187.299 86.8508 187.128 84.6598 187.331 82.4811C187.558 80.3055 188.209 78.1389 189.346 76.1986C190.517 74.2745 192.171 72.6319 194.128 71.5224C196.093 70.3986 198.331 69.842 200.515 69.7358C202.709 69.629 204.874 69.9295 206.931 70.4858C208.988 71.0468 210.958 71.8345 212.826 72.8041C214.693 73.7737 216.469 74.9105 218.123 76.2074C221.368 78.7822 224.266 81.6101 227.281 84.1953C229.355 85.9899 231.502 87.646 233.791 88.998C236.067 90.3601 238.539 91.3316 241.081 91.7594C243.618 92.183 246.258 92.0699 248.78 91.4072C251.302 90.7583 253.715 89.6373 255.884 88.1684C258.057 86.6946 259.99 84.868 261.57 82.7835C263.14 80.695 264.313 78.3238 265.141 75.8185C266.796 70.8081 266.963 65.3239 265.946 60.0877C265.201 56.0361 263.693 52.1589 261.693 48.5305C259.688 44.9023 257.154 41.5577 254.336 38.4666C248.642 32.3158 241.818 27.1558 234.607 22.7814C233.695 22.2421 232.809 21.6736 231.881 21.1631L229.093 19.6549C228.624 19.4045 228.164 19.1444 227.697 18.9078L223.41 16.839C219.538 15.1345 215.622 13.5113 211.588 12.2182C207.581 10.8359 203.472 9.79201 199.348 8.80896C195.2 7.94728 191.029 7.15164 186.814 6.68133C182.607 6.12295 178.366 5.88932 174.129 5.71073L170.949 5.68404C169.887 5.67525 168.825 5.66187 167.771 5.68947C165.661 5.74009 163.566 5.85892 161.502 6.11387C159.438 6.36423 157.412 6.77336 155.468 7.37982C154.491 7.67417 153.552 8.05358 152.628 8.45502C151.72 8.89226 150.822 9.34726 149.992 9.90385C148.304 10.9773 146.811 12.3282 145.532 13.8678C144.268 15.4203 143.21 17.1528 142.395 19.0121C140.743 22.7278 139.975 26.8508 139.771 30.9875C139.61 34.4442 139.838 37.9307 140.382 41.3735C142.645 41.838 144.881 42.4563 147.056 43.263C152.51 45.26 157.667 48.4191 161.556 52.8682C169.082 61.4837 170.717 74.4148 166.089 84.3884C165.602 85.3325 165.165 86.4069 164.539 87.42C164.394 87.6783 164.245 87.9368 164.101 88.1997L163.878 88.5921L163.621 88.9637C163.279 89.4559 162.937 89.9437 162.605 90.4262C161.732 91.6075 160.752 92.7037 159.707 93.7258C162.59 100.844 165.113 108.156 166.776 115.723C167.796 120.383 168.485 125.138 168.666 129.941C168.842 134.739 168.505 139.594 167.436 144.327C166.761 147.338 165.782 150.346 164.37 153.166C166.874 155.407 169.5 157.525 172.264 159.449ZM60.5428 118.119C62.2196 119.281 63.8574 120.482 65.5036 121.669L67.9763 123.433L70.4654 125.163C77.131 129.739 83.9747 134.004 90.9668 138.071C94.4628 140.104 98.0302 142.1 101.573 144.07C103.938 145.389 106.314 146.662 108.705 147.952C111.106 149.251 113.452 150.627 115.788 151.999C120.457 154.752 125.103 157.511 130.016 159.691C133.066 161.049 136.222 162.183 139.457 162.911C142.673 163.622 146.024 163.794 149.211 163.152C152.404 162.537 155.327 160.95 157.642 158.688C159.16 157.211 160.431 155.488 161.49 153.636C161.363 153.515 161.23 153.395 161.098 153.274C159.224 151.508 157.416 149.678 155.682 147.782C152.205 143.997 148.959 140.013 145.935 135.885C139.837 127.655 134.384 118.978 129.315 110.118C128.451 108.613 127.6 107.102 126.754 105.587C120.864 105.816 114.995 105.509 109.171 105.338C105.608 105.239 102.05 105.15 98.5136 105.248C94.9895 105.322 91.4766 105.709 88.0101 106.309C81.0671 107.501 74.3325 109.831 68.1065 113.095C65.3906 114.521 62.7899 116.157 60.3112 117.964C60.388 118.01 60.4654 118.064 60.5428 118.119Z"/>
</mask>
<path d="M76.467 235.393C76.0562 235.249 75.5635 235.051 75.027 234.819C74.4989 234.572 73.9312 234.287 73.3633 233.997C69.9248 232.209 66.4082 230.002 63.2361 227.492C51.6463 218.378 42.4767 206.138 37.3071 192.287C34.8114 185.595 33.2829 178.526 32.9207 171.376C32.8268 169.59 32.8064 167.8 32.8738 166.012L32.9107 164.674C32.9229 164.226 32.9722 163.78 33.003 163.336C33.0785 162.447 33.1213 161.55 33.2293 160.663C33.6051 157.105 34.3153 153.58 35.2704 150.131L35.6425 148.84C35.7618 148.408 35.8907 147.98 36.0431 147.56L36.9241 145.024L37.9328 142.535C38.266 141.706 38.6749 140.906 39.0458 140.089C40.5964 136.859 42.4185 133.759 44.4825 130.832C47.9922 125.889 52.2391 121.497 56.9791 117.731C56.1751 117.217 55.3677 116.721 54.544 116.259C51.9805 114.801 49.2807 113.655 46.4779 113.051C43.6757 112.456 40.7804 112.411 38.1354 113.229C35.4843 114.025 33.1227 115.649 31.218 117.769C28.3704 120.917 26.4048 124.925 24.9183 129.063C23.1388 134.082 22.0179 139.366 21.2042 144.69C20.3956 150.023 19.9093 155.417 19.5764 160.829C19.4412 162.99 19.2771 165.415 19.0675 167.216C18.9218 168.442 18.6342 168.981 18.4176 169.336C18.3715 169.408 18.3046 167.33 18.3529 166.235C18.5459 161.717 18.9028 157.165 19.2942 152.716C19.6834 148.236 20.235 143.767 21.0574 139.35C21.894 134.937 22.9867 130.563 24.6365 126.382C25.0478 125.337 25.4971 124.308 25.9938 123.298C26.4813 122.29 27.0208 121.301 27.6136 120.35C28.7844 118.435 30.2043 116.66 31.8771 115.155C33.5652 113.671 35.5395 112.473 37.71 111.806C38.7904 111.468 39.911 111.251 41.0383 111.136C42.1713 111.039 43.3073 111.057 44.4432 111.143C46.2535 111.315 48.0562 111.653 49.7607 112.251C52.8348 113.335 55.6645 114.914 58.3574 116.659C58.7794 116.341 59.1966 116.019 59.6241 115.715C66.8926 110.549 75.2009 106.89 83.8758 104.884C88.2155 103.881 92.6466 103.287 97.09 103.093C101.533 102.894 105.925 103.044 110.303 103.177C114.68 103.318 119.032 103.489 123.365 103.441C124.089 103.435 124.817 103.415 125.54 103.395C119.518 92.5156 113.827 81.4856 107.724 70.7084C104.34 64.6873 100.789 58.774 97.0158 53.0088C96.6977 52.5182 96.3798 52.0322 96.0574 51.5466C95.1338 52.1645 94.2257 52.8091 93.3332 53.4803C91.772 54.6468 90.2618 55.8883 88.7779 57.1787C85.6437 59.8949 82.6323 62.7965 79.5438 65.6479C76.4553 68.4993 73.2429 71.2897 69.7982 73.7728C66.3632 76.2645 62.7317 78.5019 58.9154 80.3828C55.0942 82.2594 51.0842 83.7889 46.9187 84.7759C41.0429 86.1328 34.8803 86.4904 28.8835 85.2245C22.9294 83.9053 17.3701 81.0075 12.8327 76.9509C11.7048 75.9283 10.6372 74.8418 9.64749 73.6765C8.66668 72.5061 7.76465 71.2705 6.95547 69.9736C5.35917 67.3646 4.12879 64.4966 3.511 61.4733C2.85216 58.4573 2.85305 55.3013 3.3835 52.2719C3.91793 49.2331 5.01408 46.3187 6.49513 43.6463C9.47927 38.2862 13.8802 33.9207 18.7265 30.369C21.1565 28.5928 23.7333 27.0142 26.3913 25.6192C29.0493 24.2243 31.7965 22.9939 34.6212 21.9612C40.2608 19.8872 46.258 18.6236 52.3311 18.5898C58.3853 18.5481 64.5351 19.8269 69.9808 22.5386C73.7719 24.3589 77.2716 26.7281 80.4554 29.4175C83.6352 32.1164 86.5216 35.1247 89.192 38.2854C91.9076 41.503 94.393 44.8693 96.7458 48.3226C97.2995 47.973 97.8404 47.6381 98.3558 47.3372C100.711 45.9021 103.217 44.7152 105.792 43.7495C108.373 42.7927 111.028 42.0613 113.71 41.5171C119.086 40.4324 124.532 40.0435 129.998 40.183C132.573 40.2632 135.144 40.5002 137.698 40.8996C136.997 36.1772 136.869 31.3342 137.581 26.5008C138.261 21.9504 139.752 17.3885 142.497 13.5229C143.861 11.6 145.533 9.86416 147.448 8.46257C149.352 7.03864 151.496 5.97216 153.701 5.18739C158.137 3.62064 162.781 3.17826 167.316 3.03791L169.02 3L170.718 3.00856L174.115 3.03028L179.204 3.24986C179.769 3.28656 180.33 3.33732 180.896 3.38319L184.282 3.65903C185.406 3.77431 186.532 3.92629 187.652 4.05564C189.904 4.28591 192.133 4.71126 194.369 5.05313C198.82 5.89036 203.255 6.83461 207.598 8.13503C209.787 8.72425 211.925 9.47335 214.076 10.1894L214.882 10.4591L219.651 12.2753L220.43 12.6113C222.509 13.5163 224.605 14.3834 226.624 15.4122L228.153 16.1551C228.663 16.4028 229.173 16.6504 229.666 16.9314L232.652 18.5603C237.424 21.2792 242.015 24.3187 246.355 27.6879C250.678 31.0813 254.749 34.8459 258.28 39.1112C261.807 43.3676 264.786 48.1482 266.699 53.3995C268.601 58.6376 269.446 64.2905 268.903 69.8731C268.41 74.7429 266.821 79.5693 263.94 83.6188C261.067 87.6447 257.055 90.8284 252.458 92.6913C250.161 93.6157 247.713 94.1999 245.222 94.3446C242.732 94.5031 240.195 94.1579 237.83 93.4006C235.456 92.6439 233.249 91.4892 231.21 90.1484C229.166 88.8034 227.28 87.2775 225.466 85.7055C222.268 82.9434 219.269 79.9793 216.012 77.5021C214.373 76.2871 212.62 75.2271 210.777 74.3527C208.94 73.4825 207.012 72.7887 205.044 72.3832C203.075 71.9777 201.055 71.8519 199.116 72.1679C197.175 72.4747 195.339 73.2491 193.827 74.4676C193.06 75.0708 192.415 75.7903 191.829 76.5612C191.569 76.9698 191.272 77.3578 191.066 77.7998C190.955 78.019 190.826 78.2256 190.734 78.4481L190.451 79.1255C189.731 80.9464 189.475 82.9534 189.531 84.9355C189.607 86.6536 189.949 88.3634 190.544 89.9738C190.622 90.1761 190.686 90.3792 190.768 90.5765L191.032 91.1627C191.192 91.5577 191.424 91.9341 191.633 92.312C191.847 92.6896 192.048 93.0773 192.275 93.4494L193.391 95.0625L194.643 96.5746C194.941 96.896 195.252 97.2028 195.559 97.519C195.865 97.8352 196.167 98.1518 196.504 98.4338L197.493 99.3089C197.826 99.5958 198.189 99.853 198.534 100.13C199.221 100.688 199.964 101.174 200.693 101.679C203.65 103.656 206.87 105.274 210.112 106.877C213.358 108.479 216.666 110.027 219.836 111.939C223.765 114.317 227.424 117.146 230.635 120.464C233.041 122.974 235.188 125.75 236.919 128.792C238.649 131.83 239.956 135.159 240.559 138.658C241.17 142.147 241.077 145.788 240.186 149.242C239.339 152.716 237.664 155.944 235.504 158.744C234.105 160.623 232.442 162.28 230.673 163.792C228.914 165.322 226.969 166.615 224.959 167.769L223.432 168.606L221.857 169.35C221.339 169.614 220.789 169.811 220.25 170.031C219.71 170.241 219.177 170.479 218.62 170.644C216.43 171.442 214.142 171.933 211.862 172.34C210.715 172.498 209.569 172.684 208.411 172.75C207.257 172.872 206.095 172.884 204.939 172.918C202.623 172.908 200.301 172.812 198.009 172.478L197.149 172.369L196.295 172.222L194.587 171.919C193.462 171.656 192.323 171.445 191.213 171.117C188.97 170.545 186.788 169.771 184.643 168.926C178.196 166.34 172.304 162.593 166.931 158.315C165.666 157.315 164.431 156.272 163.23 155.199C162.714 156.048 162.159 156.877 161.547 157.672C160.781 158.658 159.958 159.61 159.022 160.464C158.576 160.908 158.066 161.296 157.581 161.701C157.066 162.075 156.56 162.459 156.01 162.785C153.853 164.161 151.372 165.01 148.888 165.403C146.39 165.797 143.869 165.755 141.42 165.408C140.2 165.23 138.97 164.984 137.8 164.659C137.217 164.495 136.622 164.35 136.043 164.171L134.314 163.616C129.736 162.036 125.425 159.886 121.283 157.577C116.18 154.737 111.29 151.704 106.194 149.061C101.054 146.357 95.9828 143.519 90.9823 140.562C80.9906 134.647 71.2847 128.164 62.0184 121.211C60.9912 120.458 59.9599 119.715 58.921 118.995C56.2468 121.059 53.7338 123.329 51.4171 125.78C46.5946 130.892 42.7284 136.872 39.9349 143.311C36.5886 151.1 34.9628 159.591 34.9604 168.078L34.9463 168.074C34.9687 175.67 36.3692 183.249 38.9053 190.417C41.4375 197.595 45.1181 204.348 49.6026 210.486C55.9392 219.124 63.8382 226.614 73.0125 232.232C75.5492 233.776 77.3978 234.885 77.6562 235.448C77.7825 235.758 77.2887 235.684 76.467 235.393ZM84.591 36.6379C79.9602 31.6475 74.6048 27.2852 68.5001 24.4416C65.4506 23.0288 62.2372 22 58.9266 21.4612C55.6201 20.913 52.2328 20.8215 48.8799 21.1148C44.4873 21.5223 40.1439 22.5393 35.9811 24.0605C34.9344 24.4193 33.9115 24.8595 32.8818 25.2679C32.3702 25.4857 31.869 25.7212 31.3623 25.9433C30.8555 26.1654 30.3497 26.4012 29.8586 26.6499C27.8542 27.6012 25.9147 28.6958 24.0292 29.8421C22.1395 30.9932 20.3515 32.2897 18.6137 33.6475C16.8908 35.0227 15.282 36.5194 13.7616 38.0979C12.2706 39.7021 10.9157 41.4125 9.7104 43.2238C8.54334 45.0555 7.56752 46.9899 6.8139 49.0066C5.88136 51.6016 5.38092 54.3848 5.4825 57.1332C5.54764 59.8886 6.21052 62.6141 7.28206 65.17C9.47199 70.2926 13.3451 74.6322 17.884 77.9377C19.197 78.8976 20.8273 79.7721 22.4024 80.5074C24.5714 81.508 26.8384 82.3132 29.1643 82.8197C30.3253 83.0799 31.4997 83.261 32.6796 83.3865C33.2692 83.4446 33.8746 83.4602 34.4722 83.4994C35.0693 83.5294 35.6681 83.5869 36.2704 83.5567C43.2663 83.5961 50.2443 81.8122 56.6637 78.8256C63.1022 75.8469 69.0242 71.7457 74.3157 66.9625C78.9543 62.7748 83.2592 58.2819 88.321 54.2877C90.2544 52.7467 92.5441 51.081 94.7536 49.6002C91.6548 45.0394 88.3231 40.6551 84.591 36.6379ZM131.901 42.749C128.012 42.543 124.088 42.7032 120.205 43.1419C116.328 43.5985 112.484 44.357 108.773 45.5169C105.061 46.6768 101.476 48.2109 98.1608 50.2064C98.1253 50.2271 98.0943 50.2476 98.0634 50.268C99.8702 52.9923 101.606 55.7535 103.319 58.5254C111.889 72.5365 119.269 87.1692 127.152 101.46C127.487 102.069 127.822 102.674 128.162 103.278C130.878 103.128 133.573 102.86 136.233 102.413C138.34 102.041 140.431 101.567 142.482 100.977C144.527 100.368 146.527 99.6292 148.463 98.7607C150.404 97.8964 152.244 96.8406 153.994 95.6664C155.086 94.9406 156.117 94.1268 157.093 93.2612C152.771 82.4871 147.67 71.9437 143.45 61.0985C141.331 55.6534 139.558 50.0658 138.323 44.3141C138.262 44.014 138.201 43.7094 138.144 43.409C136.074 43.0746 133.989 42.8611 131.901 42.749ZM129.364 105.443C132.675 111.336 136.091 117.156 139.738 122.824L141.417 125.423C141.976 126.289 142.576 127.13 143.153 127.981L144.902 130.534C145.479 131.39 146.109 132.201 146.713 133.037C149.114 136.386 151.639 139.644 154.311 142.768C156.915 145.827 159.658 148.761 162.574 151.51C162.715 151.206 162.852 150.902 162.984 150.594C163.431 149.528 163.84 148.446 164.173 147.337C164.511 146.227 164.764 145.087 165.064 143.966C165.308 142.83 165.491 141.676 165.711 140.537C165.838 139.377 165.998 138.224 166.102 137.066C166.471 132.416 166.247 127.722 165.62 123.078C164.351 113.781 161.525 104.719 158.138 95.9063C158.066 95.713 157.984 95.5248 157.912 95.3361C157.164 95.9655 156.387 96.5693 155.594 97.1326C152.944 99.0062 150.058 100.513 147.059 101.7C141.396 103.914 135.371 105.032 129.364 105.443ZM158.834 91.5992C160.631 89.7354 162.136 87.6419 163.329 85.3615C164.493 83.0508 165.304 80.5698 165.801 78.0217L165.973 77.0613C166.036 76.744 166.093 76.4223 166.109 76.0988L166.295 74.1562L166.324 72.2055C166.34 71.8819 166.319 71.5562 166.293 71.2308L166.229 70.2583C166.018 67.6691 165.504 65.0997 164.628 62.6553C163.731 60.2217 162.501 57.9157 160.962 55.8373C159.441 53.7485 157.536 51.9199 155.455 50.3607C153.369 48.7927 151.083 47.4866 148.679 46.4277C146.271 45.3692 143.734 44.5909 141.157 43.9902C141.054 43.9647 140.951 43.9438 140.844 43.9232C142.508 52.0103 145.311 59.8708 148.505 67.5675C151.431 74.6367 154.59 81.6631 157.629 88.7618C158.037 89.7072 158.436 90.6532 158.834 91.5992ZM172.264 159.449C175.606 161.796 179.143 163.836 182.851 165.505C186.55 167.193 190.43 168.469 194.389 169.329C198.232 170.178 202.168 170.547 206.087 170.442C209.997 170.343 213.909 169.714 217.584 168.487C221.283 167.286 224.744 165.397 227.834 163.07C229.347 161.866 230.814 160.595 232.074 159.135C232.744 158.441 233.301 157.654 233.893 156.901C234.191 156.522 234.422 156.106 234.691 155.706C234.946 155.302 235.23 154.91 235.437 154.482L236.115 153.221C236.337 152.797 236.497 152.349 236.69 151.917C237.104 151.056 237.334 150.129 237.64 149.233C237.771 148.778 237.851 148.307 237.959 147.849C238.063 147.386 238.171 146.923 238.223 146.449L238.324 145.742L238.384 145.033C238.431 144.56 238.446 144.085 238.457 143.61C238.549 139.807 237.627 136.007 236.032 132.504C234.436 128.992 232.186 125.767 229.553 122.885C226.919 120.003 223.905 117.445 220.657 115.248C219.025 114.148 217.355 113.152 215.588 112.231C213.834 111.3 212.041 110.418 210.226 109.528C206.608 107.751 202.928 105.933 199.461 103.64C197.725 102.496 196.08 101.184 194.524 99.7567C193.016 98.2753 191.609 96.6582 190.462 94.8536C190.157 94.4174 189.926 93.9304 189.656 93.4689C189.4 93.002 189.125 92.5454 188.916 92.0339C188.446 91.0465 188.119 90.0036 187.829 88.9584C187.299 86.8508 187.128 84.6598 187.331 82.4811C187.558 80.3055 188.209 78.1389 189.346 76.1986C190.517 74.2745 192.171 72.6319 194.128 71.5224C196.093 70.3986 198.331 69.842 200.515 69.7358C202.709 69.629 204.874 69.9295 206.931 70.4858C208.988 71.0468 210.958 71.8345 212.826 72.8041C214.693 73.7737 216.469 74.9105 218.123 76.2074C221.368 78.7822 224.266 81.6101 227.281 84.1953C229.355 85.9899 231.502 87.646 233.791 88.998C236.067 90.3601 238.539 91.3316 241.081 91.7594C243.618 92.183 246.258 92.0699 248.78 91.4072C251.302 90.7583 253.715 89.6373 255.884 88.1684C258.057 86.6946 259.99 84.868 261.57 82.7835C263.14 80.695 264.313 78.3238 265.141 75.8185C266.796 70.8081 266.963 65.3239 265.946 60.0877C265.201 56.0361 263.693 52.1589 261.693 48.5305C259.688 44.9023 257.154 41.5577 254.336 38.4666C248.642 32.3158 241.818 27.1558 234.607 22.7814C233.695 22.2421 232.809 21.6736 231.881 21.1631L229.093 19.6549C228.624 19.4045 228.164 19.1444 227.697 18.9078L223.41 16.839C219.538 15.1345 215.622 13.5113 211.588 12.2182C207.581 10.8359 203.472 9.79201 199.348 8.80896C195.2 7.94728 191.029 7.15164 186.814 6.68133C182.607 6.12295 178.366 5.88932 174.129 5.71073L170.949 5.68404C169.887 5.67525 168.825 5.66187 167.771 5.68947C165.661 5.74009 163.566 5.85892 161.502 6.11387C159.438 6.36423 157.412 6.77336 155.468 7.37982C154.491 7.67417 153.552 8.05358 152.628 8.45502C151.72 8.89226 150.822 9.34726 149.992 9.90385C148.304 10.9773 146.811 12.3282 145.532 13.8678C144.268 15.4203 143.21 17.1528 142.395 19.0121C140.743 22.7278 139.975 26.8508 139.771 30.9875C139.61 34.4442 139.838 37.9307 140.382 41.3735C142.645 41.838 144.881 42.4563 147.056 43.263C152.51 45.26 157.667 48.4191 161.556 52.8682C169.082 61.4837 170.717 74.4148 166.089 84.3884C165.602 85.3325 165.165 86.4069 164.539 87.42C164.394 87.6783 164.245 87.9368 164.101 88.1997L163.878 88.5921L163.621 88.9637C163.279 89.4559 162.937 89.9437 162.605 90.4262C161.732 91.6075 160.752 92.7037 159.707 93.7258C162.59 100.844 165.113 108.156 166.776 115.723C167.796 120.383 168.485 125.138 168.666 129.941C168.842 134.739 168.505 139.594 167.436 144.327C166.761 147.338 165.782 150.346 164.37 153.166C166.874 155.407 169.5 157.525 172.264 159.449ZM60.5428 118.119C62.2196 119.281 63.8574 120.482 65.5036 121.669L67.9763 123.433L70.4654 125.163C77.131 129.739 83.9747 134.004 90.9668 138.071C94.4628 140.104 98.0302 142.1 101.573 144.07C103.938 145.389 106.314 146.662 108.705 147.952C111.106 149.251 113.452 150.627 115.788 151.999C120.457 154.752 125.103 157.511 130.016 159.691C133.066 161.049 136.222 162.183 139.457 162.911C142.673 163.622 146.024 163.794 149.211 163.152C152.404 162.537 155.327 160.95 157.642 158.688C159.16 157.211 160.431 155.488 161.49 153.636C161.363 153.515 161.23 153.395 161.098 153.274C159.224 151.508 157.416 149.678 155.682 147.782C152.205 143.997 148.959 140.013 145.935 135.885C139.837 127.655 134.384 118.978 129.315 110.118C128.451 108.613 127.6 107.102 126.754 105.587C120.864 105.816 114.995 105.509 109.171 105.338C105.608 105.239 102.05 105.15 98.5136 105.248C94.9895 105.322 91.4766 105.709 88.0101 106.309C81.0671 107.501 74.3325 109.831 68.1065 113.095C65.3906 114.521 62.7899 116.157 60.3112 117.964C60.388 118.01 60.4654 118.064 60.5428 118.119Z" fill="#FF9900"/>
<path d="M76.467 235.393C76.0562 235.249 75.5635 235.051 75.027 234.819C74.4989 234.572 73.9312 234.287 73.3633 233.997C69.9248 232.209 66.4082 230.002 63.2361 227.492C51.6463 218.378 42.4767 206.138 37.3071 192.287C34.8114 185.595 33.2829 178.526 32.9207 171.376C32.8268 169.59 32.8064 167.8 32.8738 166.012L32.9107 164.674C32.9229 164.226 32.9722 163.78 33.003 163.336C33.0785 162.447 33.1213 161.55 33.2293 160.663C33.6051 157.105 34.3153 153.58 35.2704 150.131L35.6425 148.84C35.7618 148.408 35.8907 147.98 36.0431 147.56L36.9241 145.024L37.9328 142.535C38.266 141.706 38.6749 140.906 39.0458 140.089C40.5964 136.859 42.4185 133.759 44.4825 130.832C47.9922 125.889 52.2391 121.497 56.9791 117.731C56.1751 117.217 55.3677 116.721 54.544 116.259C51.9805 114.801 49.2807 113.655 46.4779 113.051C43.6757 112.456 40.7804 112.411 38.1354 113.229C35.4843 114.025 33.1227 115.649 31.218 117.769C28.3704 120.917 26.4048 124.925 24.9183 129.063C23.1388 134.082 22.0179 139.366 21.2042 144.69C20.3956 150.023 19.9093 155.417 19.5764 160.829C19.4412 162.99 19.2771 165.415 19.0675 167.216C18.9218 168.442 18.6342 168.981 18.4176 169.336C18.3715 169.408 18.3046 167.33 18.3529 166.235C18.5459 161.717 18.9028 157.165 19.2942 152.716C19.6834 148.236 20.235 143.767 21.0574 139.35C21.894 134.937 22.9867 130.563 24.6365 126.382C25.0478 125.337 25.4971 124.308 25.9938 123.298C26.4813 122.29 27.0208 121.301 27.6136 120.35C28.7844 118.435 30.2043 116.66 31.8771 115.155C33.5652 113.671 35.5395 112.473 37.71 111.806C38.7904 111.468 39.911 111.251 41.0383 111.136C42.1713 111.039 43.3073 111.057 44.4432 111.143C46.2535 111.315 48.0562 111.653 49.7607 112.251C52.8348 113.335 55.6645 114.914 58.3574 116.659C58.7794 116.341 59.1966 116.019 59.6241 115.715C66.8926 110.549 75.2009 106.89 83.8758 104.884C88.2155 103.881 92.6466 103.287 97.09 103.093C101.533 102.894 105.925 103.044 110.303 103.177C114.68 103.318 119.032 103.489 123.365 103.441C124.089 103.435 124.817 103.415 125.54 103.395C119.518 92.5156 113.827 81.4856 107.724 70.7084C104.34 64.6873 100.789 58.774 97.0158 53.0088C96.6977 52.5182 96.3798 52.0322 96.0574 51.5466C95.1338 52.1645 94.2257 52.8091 93.3332 53.4803C91.772 54.6468 90.2618 55.8883 88.7779 57.1787C85.6437 59.8949 82.6323 62.7965 79.5438 65.6479C76.4553 68.4993 73.2429 71.2897 69.7982 73.7728C66.3632 76.2645 62.7317 78.5019 58.9154 80.3828C55.0942 82.2594 51.0842 83.7889 46.9187 84.7759C41.0429 86.1328 34.8803 86.4904 28.8835 85.2245C22.9294 83.9053 17.3701 81.0075 12.8327 76.9509C11.7048 75.9283 10.6372 74.8418 9.64749 73.6765C8.66668 72.5061 7.76465 71.2705 6.95547 69.9736C5.35917 67.3646 4.12879 64.4966 3.511 61.4733C2.85216 58.4573 2.85305 55.3013 3.3835 52.2719C3.91793 49.2331 5.01408 46.3187 6.49513 43.6463C9.47927 38.2862 13.8802 33.9207 18.7265 30.369C21.1565 28.5928 23.7333 27.0142 26.3913 25.6192C29.0493 24.2243 31.7965 22.9939 34.6212 21.9612C40.2608 19.8872 46.258 18.6236 52.3311 18.5898C58.3853 18.5481 64.5351 19.8269 69.9808 22.5386C73.7719 24.3589 77.2716 26.7281 80.4554 29.4175C83.6352 32.1164 86.5216 35.1247 89.192 38.2854C91.9076 41.503 94.393 44.8693 96.7458 48.3226C97.2995 47.973 97.8404 47.6381 98.3558 47.3372C100.711 45.9021 103.217 44.7152 105.792 43.7495C108.373 42.7927 111.028 42.0613 113.71 41.5171C119.086 40.4324 124.532 40.0435 129.998 40.183C132.573 40.2632 135.144 40.5002 137.698 40.8996C136.997 36.1772 136.869 31.3342 137.581 26.5008C138.261 21.9504 139.752 17.3885 142.497 13.5229C143.861 11.6 145.533 9.86416 147.448 8.46257C149.352 7.03864 151.496 5.97216 153.701 5.18739C158.137 3.62064 162.781 3.17826 167.316 3.03791L169.02 3L170.718 3.00856L174.115 3.03028L179.204 3.24986C179.769 3.28656 180.33 3.33732 180.896 3.38319L184.282 3.65903C185.406 3.77431 186.532 3.92629 187.652 4.05564C189.904 4.28591 192.133 4.71126 194.369 5.05313C198.82 5.89036 203.255 6.83461 207.598 8.13503C209.787 8.72425 211.925 9.47335 214.076 10.1894L214.882 10.4591L219.651 12.2753L220.43 12.6113C222.509 13.5163 224.605 14.3834 226.624 15.4122L228.153 16.1551C228.663 16.4028 229.173 16.6504 229.666 16.9314L232.652 18.5603C237.424 21.2792 242.015 24.3187 246.355 27.6879C250.678 31.0813 254.749 34.8459 258.28 39.1112C261.807 43.3676 264.786 48.1482 266.699 53.3995C268.601 58.6376 269.446 64.2905 268.903 69.8731C268.41 74.7429 266.821 79.5693 263.94 83.6188C261.067 87.6447 257.055 90.8284 252.458 92.6913C250.161 93.6157 247.713 94.1999 245.222 94.3446C242.732 94.5031 240.195 94.1579 237.83 93.4006C235.456 92.6439 233.249 91.4892 231.21 90.1484C229.166 88.8034 227.28 87.2775 225.466 85.7055C222.268 82.9434 219.269 79.9793 216.012 77.5021C214.373 76.2871 212.62 75.2271 210.777 74.3527C208.94 73.4825 207.012 72.7887 205.044 72.3832C203.075 71.9777 201.055 71.8519 199.116 72.1679C197.175 72.4747 195.339 73.2491 193.827 74.4676C193.06 75.0708 192.415 75.7903 191.829 76.5612C191.569 76.9698 191.272 77.3578 191.066 77.7998C190.955 78.019 190.826 78.2256 190.734 78.4481L190.451 79.1255C189.731 80.9464 189.475 82.9534 189.531 84.9355C189.607 86.6536 189.949 88.3634 190.544 89.9738C190.622 90.1761 190.686 90.3792 190.768 90.5765L191.032 91.1627C191.192 91.5577 191.424 91.9341 191.633 92.312C191.847 92.6896 192.048 93.0773 192.275 93.4494L193.391 95.0625L194.643 96.5746C194.941 96.896 195.252 97.2028 195.559 97.519C195.865 97.8352 196.167 98.1518 196.504 98.4338L197.493 99.3089C197.826 99.5958 198.189 99.853 198.534 100.13C199.221 100.688 199.964 101.174 200.693 101.679C203.65 103.656 206.87 105.274 210.112 106.877C213.358 108.479 216.666 110.027 219.836 111.939C223.765 114.317 227.424 117.146 230.635 120.464C233.041 122.974 235.188 125.75 236.919 128.792C238.649 131.83 239.956 135.159 240.559 138.658C241.17 142.147 241.077 145.788 240.186 149.242C239.339 152.716 237.664 155.944 235.504 158.744C234.105 160.623 232.442 162.28 230.673 163.792C228.914 165.322 226.969 166.615 224.959 167.769L223.432 168.606L221.857 169.35C221.339 169.614 220.789 169.811 220.25 170.031C219.71 170.241 219.177 170.479 218.62 170.644C216.43 171.442 214.142 171.933 211.862 172.34C210.715 172.498 209.569 172.684 208.411 172.75C207.257 172.872 206.095 172.884 204.939 172.918C202.623 172.908 200.301 172.812 198.009 172.478L197.149 172.369L196.295 172.222L194.587 171.919C193.462 171.656 192.323 171.445 191.213 171.117C188.97 170.545 186.788 169.771 184.643 168.926C178.196 166.34 172.304 162.593 166.931 158.315C165.666 157.315 164.431 156.272 163.23 155.199C162.714 156.048 162.159 156.877 161.547 157.672C160.781 158.658 159.958 159.61 159.022 160.464C158.576 160.908 158.066 161.296 157.581 161.701C157.066 162.075 156.56 162.459 156.01 162.785C153.853 164.161 151.372 165.01 148.888 165.403C146.39 165.797 143.869 165.755 141.42 165.408C140.2 165.23 138.97 164.984 137.8 164.659C137.217 164.495 136.622 164.35 136.043 164.171L134.314 163.616C129.736 162.036 125.425 159.886 121.283 157.577C116.18 154.737 111.29 151.704 106.194 149.061C101.054 146.357 95.9828 143.519 90.9823 140.562C80.9906 134.647 71.2847 128.164 62.0184 121.211C60.9912 120.458 59.9599 119.715 58.921 118.995C56.2468 121.059 53.7338 123.329 51.4171 125.78C46.5946 130.892 42.7284 136.872 39.9349 143.311C36.5886 151.1 34.9628 159.591 34.9604 168.078L34.9463 168.074C34.9687 175.67 36.3692 183.249 38.9053 190.417C41.4375 197.595 45.1181 204.348 49.6026 210.486C55.9392 219.124 63.8382 226.614 73.0125 232.232C75.5492 233.776 77.3978 234.885 77.6562 235.448C77.7825 235.758 77.2887 235.684 76.467 235.393ZM84.591 36.6379C79.9602 31.6475 74.6048 27.2852 68.5001 24.4416C65.4506 23.0288 62.2372 22 58.9266 21.4612C55.6201 20.913 52.2328 20.8215 48.8799 21.1148C44.4873 21.5223 40.1439 22.5393 35.9811 24.0605C34.9344 24.4193 33.9115 24.8595 32.8818 25.2679C32.3702 25.4857 31.869 25.7212 31.3623 25.9433C30.8555 26.1654 30.3497 26.4012 29.8586 26.6499C27.8542 27.6012 25.9147 28.6958 24.0292 29.8421C22.1395 30.9932 20.3515 32.2897 18.6137 33.6475C16.8908 35.0227 15.282 36.5194 13.7616 38.0979C12.2706 39.7021 10.9157 41.4125 9.7104 43.2238C8.54334 45.0555 7.56752 46.9899 6.8139 49.0066C5.88136 51.6016 5.38092 54.3848 5.4825 57.1332C5.54764 59.8886 6.21052 62.6141 7.28206 65.17C9.47199 70.2926 13.3451 74.6322 17.884 77.9377C19.197 78.8976 20.8273 79.7721 22.4024 80.5074C24.5714 81.508 26.8384 82.3132 29.1643 82.8197C30.3253 83.0799 31.4997 83.261 32.6796 83.3865C33.2692 83.4446 33.8746 83.4602 34.4722 83.4994C35.0693 83.5294 35.6681 83.5869 36.2704 83.5567C43.2663 83.5961 50.2443 81.8122 56.6637 78.8256C63.1022 75.8469 69.0242 71.7457 74.3157 66.9625C78.9543 62.7748 83.2592 58.2819 88.321 54.2877C90.2544 52.7467 92.5441 51.081 94.7536 49.6002C91.6548 45.0394 88.3231 40.6551 84.591 36.6379ZM131.901 42.749C128.012 42.543 124.088 42.7032 120.205 43.1419C116.328 43.5985 112.484 44.357 108.773 45.5169C105.061 46.6768 101.476 48.2109 98.1608 50.2064C98.1253 50.2271 98.0943 50.2476 98.0634 50.268C99.8702 52.9923 101.606 55.7535 103.319 58.5254C111.889 72.5365 119.269 87.1692 127.152 101.46C127.487 102.069 127.822 102.674 128.162 103.278C130.878 103.128 133.573 102.86 136.233 102.413C138.34 102.041 140.431 101.567 142.482 100.977C144.527 100.368 146.527 99.6292 148.463 98.7607C150.404 97.8964 152.244 96.8406 153.994 95.6664C155.086 94.9406 156.117 94.1268 157.093 93.2612C152.771 82.4871 147.67 71.9437 143.45 61.0985C141.331 55.6534 139.558 50.0658 138.323 44.3141C138.262 44.014 138.201 43.7094 138.144 43.409C136.074 43.0746 133.989 42.8611 131.901 42.749ZM129.364 105.443C132.675 111.336 136.091 117.156 139.738 122.824L141.417 125.423C141.976 126.289 142.576 127.13 143.153 127.981L144.902 130.534C145.479 131.39 146.109 132.201 146.713 133.037C149.114 136.386 151.639 139.644 154.311 142.768C156.915 145.827 159.658 148.761 162.574 151.51C162.715 151.206 162.852 150.902 162.984 150.594C163.431 149.528 163.84 148.446 164.173 147.337C164.511 146.227 164.764 145.087 165.064 143.966C165.308 142.83 165.491 141.676 165.711 140.537C165.838 139.377 165.998 138.224 166.102 137.066C166.471 132.416 166.247 127.722 165.62 123.078C164.351 113.781 161.525 104.719 158.138 95.9063C158.066 95.713 157.984 95.5248 157.912 95.3361C157.164 95.9655 156.387 96.5693 155.594 97.1326C152.944 99.0062 150.058 100.513 147.059 101.7C141.396 103.914 135.371 105.032 129.364 105.443ZM158.834 91.5992C160.631 89.7354 162.136 87.6419 163.329 85.3615C164.493 83.0508 165.304 80.5698 165.801 78.0217L165.973 77.0613C166.036 76.744 166.093 76.4223 166.109 76.0988L166.295 74.1562L166.324 72.2055C166.34 71.8819 166.319 71.5562 166.293 71.2308L166.229 70.2583C166.018 67.6691 165.504 65.0997 164.628 62.6553C163.731 60.2217 162.501 57.9157 160.962 55.8373C159.441 53.7485 157.536 51.9199 155.455 50.3607C153.369 48.7927 151.083 47.4866 148.679 46.4277C146.271 45.3692 143.734 44.5909 141.157 43.9902C141.054 43.9647 140.951 43.9438 140.844 43.9232C142.508 52.0103 145.311 59.8708 148.505 67.5675C151.431 74.6367 154.59 81.6631 157.629 88.7618C158.037 89.7072 158.436 90.6532 158.834 91.5992ZM172.264 159.449C175.606 161.796 179.143 163.836 182.851 165.505C186.55 167.193 190.43 168.469 194.389 169.329C198.232 170.178 202.168 170.547 206.087 170.442C209.997 170.343 213.909 169.714 217.584 168.487C221.283 167.286 224.744 165.397 227.834 163.07C229.347 161.866 230.814 160.595 232.074 159.135C232.744 158.441 233.301 157.654 233.893 156.901C234.191 156.522 234.422 156.106 234.691 155.706C234.946 155.302 235.23 154.91 235.437 154.482L236.115 153.221C236.337 152.797 236.497 152.349 236.69 151.917C237.104 151.056 237.334 150.129 237.64 149.233C237.771 148.778 237.851 148.307 237.959 147.849C238.063 147.386 238.171 146.923 238.223 146.449L238.324 145.742L238.384 145.033C238.431 144.56 238.446 144.085 238.457 143.61C238.549 139.807 237.627 136.007 236.032 132.504C234.436 128.992 232.186 125.767 229.553 122.885C226.919 120.003 223.905 117.445 220.657 115.248C219.025 114.148 217.355 113.152 215.588 112.231C213.834 111.3 212.041 110.418 210.226 109.528C206.608 107.751 202.928 105.933 199.461 103.64C197.725 102.496 196.08 101.184 194.524 99.7567C193.016 98.2753 191.609 96.6582 190.462 94.8536C190.157 94.4174 189.926 93.9304 189.656 93.4689C189.4 93.002 189.125 92.5454 188.916 92.0339C188.446 91.0465 188.119 90.0036 187.829 88.9584C187.299 86.8508 187.128 84.6598 187.331 82.4811C187.558 80.3055 188.209 78.1389 189.346 76.1986C190.517 74.2745 192.171 72.6319 194.128 71.5224C196.093 70.3986 198.331 69.842 200.515 69.7358C202.709 69.629 204.874 69.9295 206.931 70.4858C208.988 71.0468 210.958 71.8345 212.826 72.8041C214.693 73.7737 216.469 74.9105 218.123 76.2074C221.368 78.7822 224.266 81.6101 227.281 84.1953C229.355 85.9899 231.502 87.646 233.791 88.998C236.067 90.3601 238.539 91.3316 241.081 91.7594C243.618 92.183 246.258 92.0699 248.78 91.4072C251.302 90.7583 253.715 89.6373 255.884 88.1684C258.057 86.6946 259.99 84.868 261.57 82.7835C263.14 80.695 264.313 78.3238 265.141 75.8185C266.796 70.8081 266.963 65.3239 265.946 60.0877C265.201 56.0361 263.693 52.1589 261.693 48.5305C259.688 44.9023 257.154 41.5577 254.336 38.4666C248.642 32.3158 241.818 27.1558 234.607 22.7814C233.695 22.2421 232.809 21.6736 231.881 21.1631L229.093 19.6549C228.624 19.4045 228.164 19.1444 227.697 18.9078L223.41 16.839C219.538 15.1345 215.622 13.5113 211.588 12.2182C207.581 10.8359 203.472 9.79201 199.348 8.80896C195.2 7.94728 191.029 7.15164 186.814 6.68133C182.607 6.12295 178.366 5.88932 174.129 5.71073L170.949 5.68404C169.887 5.67525 168.825 5.66187 167.771 5.68947C165.661 5.74009 163.566 5.85892 161.502 6.11387C159.438 6.36423 157.412 6.77336 155.468 7.37982C154.491 7.67417 153.552 8.05358 152.628 8.45502C151.72 8.89226 150.822 9.34726 149.992 9.90385C148.304 10.9773 146.811 12.3282 145.532 13.8678C144.268 15.4203 143.21 17.1528 142.395 19.0121C140.743 22.7278 139.975 26.8508 139.771 30.9875C139.61 34.4442 139.838 37.9307 140.382 41.3735C142.645 41.838 144.881 42.4563 147.056 43.263C152.51 45.26 157.667 48.4191 161.556 52.8682C169.082 61.4837 170.717 74.4148 166.089 84.3884C165.602 85.3325 165.165 86.4069 164.539 87.42C164.394 87.6783 164.245 87.9368 164.101 88.1997L163.878 88.5921L163.621 88.9637C163.279 89.4559 162.937 89.9437 162.605 90.4262C161.732 91.6075 160.752 92.7037 159.707 93.7258C162.59 100.844 165.113 108.156 166.776 115.723C167.796 120.383 168.485 125.138 168.666 129.941C168.842 134.739 168.505 139.594 167.436 144.327C166.761 147.338 165.782 150.346 164.37 153.166C166.874 155.407 169.5 157.525 172.264 159.449ZM60.5428 118.119C62.2196 119.281 63.8574 120.482 65.5036 121.669L67.9763 123.433L70.4654 125.163C77.131 129.739 83.9747 134.004 90.9668 138.071C94.4628 140.104 98.0302 142.1 101.573 144.07C103.938 145.389 106.314 146.662 108.705 147.952C111.106 149.251 113.452 150.627 115.788 151.999C120.457 154.752 125.103 157.511 130.016 159.691C133.066 161.049 136.222 162.183 139.457 162.911C142.673 163.622 146.024 163.794 149.211 163.152C152.404 162.537 155.327 160.95 157.642 158.688C159.16 157.211 160.431 155.488 161.49 153.636C161.363 153.515 161.23 153.395 161.098 153.274C159.224 151.508 157.416 149.678 155.682 147.782C152.205 143.997 148.959 140.013 145.935 135.885C139.837 127.655 134.384 118.978 129.315 110.118C128.451 108.613 127.6 107.102 126.754 105.587C120.864 105.816 114.995 105.509 109.171 105.338C105.608 105.239 102.05 105.15 98.5136 105.248C94.9895 105.322 91.4766 105.709 88.0101 106.309C81.0671 107.501 74.3325 109.831 68.1065 113.095C65.3906 114.521 62.7899 116.157 60.3112 117.964C60.388 118.01 60.4654 118.064 60.5428 118.119Z" stroke="#FF9900" stroke-width="6" mask="url(#path-1-outside-1)"/>
</svg>
