<svg width="16" height="17" viewBox="0 0 16 17" fill="none" xmlns="http://www.w3.org/2000/svg">
<path d="M14.3226 9.1875C14.3226 12.8119 11.4919 15.75 8 15.75C4.50814 15.75 1.67742 12.8119 1.67742 9.1875C1.67742 5.56313 4.50814 2.625 8 2.625C11.4919 2.625 14.3226 5.56313 14.3226 9.1875Z" fill="#447BFE" fill-opacity="0.3"/>
<path d="M8 6.375V9.1875H9.80645M3.48387 0.75L1 2.625M12.5161 0.75L15 2.625M14.3226 9.1875C14.3226 12.8119 11.4919 15.75 8 15.75C4.50814 15.75 1.67742 12.8119 1.67742 9.1875C1.67742 5.56313 4.50814 2.625 8 2.625C11.4919 2.625 14.3226 5.56313 14.3226 9.1875Z" stroke="#447BFE" stroke-width="1.5" stroke-linecap="round" stroke-linejoin="round"/>
</svg>
