<svg width="22" height="22" viewBox="0 0 22 22" fill="none" xmlns="http://www.w3.org/2000/svg">
<path fill-rule="evenodd" clip-rule="evenodd" d="M0.653961 3.27606C0 4.55953 0 6.23969 0 9.6V12.4C0 15.7603 0 17.4405 0.653961 18.7239C1.2292 19.8529 2.14708 20.7708 3.27606 21.346C4.55953 22 6.23969 22 9.6 22H12.4C15.7603 22 17.4405 22 18.7239 21.346C19.8529 20.7708 20.7708 19.8529 21.346 18.7239C22 17.4405 22 15.7603 22 12.4V9.6C22 6.23969 22 4.55953 21.346 3.27606C20.7708 2.14708 19.8529 1.2292 18.7239 0.653961C17.4405 0 15.7603 0 12.4 0H9.6C6.23969 0 4.55953 0 3.27606 0.653961C2.14708 1.2292 1.2292 2.14708 0.653961 3.27606ZM6.29294 7.70711C5.90241 7.31659 5.90241 6.68342 6.29294 6.29289C6.68347 5.90237 7.31663 5.90237 7.70716 6.29289L11 9.58578L14.2929 6.29289C14.6835 5.90237 15.3166 5.90237 15.7071 6.29289C16.0977 6.68342 16.0977 7.31659 15.7071 7.70711L12.4143 11L15.7072 14.2929C16.0977 14.6835 16.0977 15.3166 15.7072 15.7071C15.3167 16.0977 14.6835 16.0977 14.293 15.7071L11 12.4142L7.70711 15.7071C7.31659 16.0977 6.68342 16.0977 6.29289 15.7071C5.90237 15.3166 5.90237 14.6835 6.29289 14.2929L9.58582 11L6.29294 7.70711Z" fill="#EF4439"/>
</svg>
