<svg width="18" height="19" viewBox="0 0 18 19" fill="none" xmlns="http://www.w3.org/2000/svg">
<path d="M6 14.2222V15.1667C6 15.9181 6.31607 16.6388 6.87868 17.1701C7.44129 17.7015 8.20435 18 9 18C9.79565 18 10.5587 17.7015 11.1213 17.1701C11.6839 16.6388 12 15.9181 12 15.1667V14.2222M7 2.88889C7 2.38792 7.21071 1.90748 7.58579 1.55324C7.96086 1.19901 8.46957 1 9 1C9.53043 1 10.0391 1.19901 10.4142 1.55324C10.7893 1.90748 11 2.38792 11 2.88889C12.1484 3.40175 13.1274 4.20009 13.8321 5.19834C14.5367 6.19659 14.9404 7.35712 15 8.55556V11.3889C15.0753 11.9761 15.2954 12.5383 15.6428 13.0305C15.9902 13.5226 16.4551 13.9308 17 14.2222H1C1.54494 13.9308 2.00981 13.5226 2.35719 13.0305C2.70457 12.5383 2.92474 11.9761 3 11.3889V8.55556C3.05956 7.35712 3.4633 6.19659 4.16795 5.19834C4.8726 4.20009 5.85159 3.40175 7 2.88889Z" stroke="#00CE15" stroke-width="1.5" stroke-linecap="round" stroke-linejoin="round"/>
</svg>
