<svg width="18" height="19" viewBox="0 0 18 19" fill="none" xmlns="http://www.w3.org/2000/svg">
<path d="M7.58579 1.30324C7.21071 1.65748 7 2.13792 7 2.63889C5.85159 3.15175 4.8726 3.95009 4.16795 4.94834C3.4633 5.94659 3.05956 7.10712 3 8.30556V11.1389C2.92474 11.7261 2.70457 12.2883 2.35719 12.7805C2.00981 13.2726 1.54494 13.6808 1 13.9722H6H12H17C16.4551 13.6808 15.9902 13.2726 15.6428 12.7805C15.2954 12.2883 15.0753 11.7261 15 11.1389V8.30556C14.9404 7.10712 14.5367 5.94659 13.8321 4.94834C13.1274 3.95009 12.1484 3.15175 11 2.63889C11 2.13792 10.7893 1.65748 10.4142 1.30324C10.0391 0.949007 9.53043 0.75 9 0.75C8.46957 0.75 7.96086 0.949007 7.58579 1.30324Z" fill="#00CE15" fill-opacity="0.3"/>
<path d="M17 13.9722C16.4551 13.6808 15.9902 13.2726 15.6428 12.7805C15.2954 12.2883 15.0753 11.7261 15 11.1389V8.30556C14.9404 7.10712 14.5367 5.94659 13.8321 4.94834C13.1274 3.95009 12.1484 3.15175 11 2.63889C11 2.13792 10.7893 1.65748 10.4142 1.30324C10.0391 0.949007 9.53043 0.75 9 0.75C8.46957 0.75 7.96086 0.949007 7.58579 1.30324C7.21071 1.65748 7 2.13792 7 2.63889C5.85159 3.15175 4.8726 3.95009 4.16795 4.94834C3.4633 5.94659 3.05956 7.10712 3 8.30556V11.1389C2.92474 11.7261 2.70457 12.2883 2.35719 12.7805C2.00981 13.2726 1.54494 13.6808 1 13.9722M17 13.9722H1M17 13.9722H12M1 13.9722H6M6 13.9722V14.9167C6 15.6681 6.31607 16.3888 6.87868 16.9201C7.44129 17.4515 8.20435 17.75 9 17.75C9.79565 17.75 10.5587 17.4515 11.1213 16.9201C11.6839 16.3888 12 15.6681 12 14.9167V13.9722M6 13.9722H12" stroke="#00CE15" stroke-width="1.5" stroke-linecap="round" stroke-linejoin="round"/>
</svg>
