<svg width="34" height="34" viewBox="0 0 34 34" fill="none" xmlns="http://www.w3.org/2000/svg">
<path d="M28 17.5C28 23.786 22.786 29 16.5 29C10.2257 29 5 23.7853 5 17.5C5 11.225 10.2153 6 16.4877 6C22.7743 6 28 11.2269 28 17.5ZM5.09559 17.5C5.09559 23.8351 10.1619 28.9167 16.5 28.9167C22.8347 28.9167 27.9301 23.8381 27.9167 17.4979C27.9032 11.1764 22.8255 6.08333 16.4877 6.08333C10.1473 6.08333 5.09559 11.1795 5.09559 17.5ZM23.4289 17.5123C23.4289 21.2992 20.285 24.4534 16.4877 24.4534C12.713 24.4534 9.54657 21.2972 9.54657 17.5123C9.54657 13.712 12.6915 10.5588 16.4877 10.5588C20.2614 10.5588 23.4289 13.714 23.4289 17.5123Z" fill="#FFE600" stroke="#FF9900" stroke-width="2"/>
</svg>
