<svg width="30" height="30" viewBox="0 0 30 30" fill="none" xmlns="http://www.w3.org/2000/svg">
<path d="M14.7647 19.3333C17.2013 19.3333 19.1765 17.3932 19.1765 15C19.1765 12.6068 17.2013 10.6667 14.7647 10.6667C12.3282 10.6667 10.3529 12.6068 10.3529 15C10.3529 17.3932 12.3282 19.3333 14.7647 19.3333Z" fill="#FF9900" fill-opacity="0.3"/>
<path d="M14.7647 4.88889V2M22.1176 7.77778L24.1765 5.75556M25.0588 15H28M22.1176 22.2222L24.1765 24.2444M14.7647 25.1111V28M7.41176 22.2222L5.35294 24.2444M4.94118 15H2M7.41176 7.77778L5.35294 5.75556M19.1765 15C19.1765 17.3932 17.2013 19.3333 14.7647 19.3333C12.3282 19.3333 10.3529 17.3932 10.3529 15C10.3529 12.6068 12.3282 10.6667 14.7647 10.6667C17.2013 10.6667 19.1765 12.6068 19.1765 15Z" stroke="#FF9900" stroke-width="2.5" stroke-linecap="round" stroke-linejoin="round"/>
</svg>
