<svg width="32" height="35" viewBox="0 0 32 35" fill="none" xmlns="http://www.w3.org/2000/svg">
<path d="M9 5.44444H5.5C3.567 5.44444 2 6.98657 2 8.88889V15.7778H30V8.88889C30 6.98657 28.433 5.44444 26.5 5.44444H23H9Z" fill="#447BFE" fill-opacity="0.3"/>
<path d="M30 8.88889C30 6.98657 28.433 5.44444 26.5 5.44444H23M30 8.88889V29.5556C30 31.4579 28.433 33 26.5 33H5.5C3.567 33 2 31.4579 2 29.5556V8.88889M30 8.88889V15.7778H2V8.88889M2 8.88889C2 6.98657 3.567 5.44444 5.5 5.44444H9M23 2V5.44444M23 8.88889V5.44444M9 2V5.44444M9 8.88889V5.44444M12.5 24.3889H19.5M16 20.9444V27.8333M9 5.44444H23" stroke="#447BFE" stroke-width="2.5" stroke-linecap="round" stroke-linejoin="round"/>
</svg>
