<svg width="29" height="30" viewBox="0 0 29 30" fill="none" xmlns="http://www.w3.org/2000/svg">
<path d="M21.3063 3.48737C18.9854 2.28703 16.3544 1.79605 13.7493 2.07713C11.1441 2.35821 8.68303 3.39858 6.68029 5.0654C4.67755 6.73222 3.22404 8.94983 2.50537 11.4351C1.78671 13.9203 1.8355 16.5604 2.64552 19.0181C3.45555 21.4759 4.99004 23.6398 7.05304 25.2335C9.11605 26.8273 11.6139 27.7785 14.2278 27.9658C16.8416 28.1531 19.4527 27.5679 21.7276 26.285C24.0026 25.002 25.8382 23.0796 27 20.7631C25.7774 21.5144 24.3974 21.9814 22.9646 22.1287C21.5318 22.2759 20.0838 22.0995 18.7304 21.6129C17.377 21.1263 16.1537 20.3422 15.1532 19.3201C14.1528 18.298 13.4014 17.0647 12.9562 15.7137C12.5109 14.3627 12.3834 12.9295 12.5833 11.5227C12.7833 10.1159 13.3054 8.77239 14.1101 7.59413C14.9148 6.41587 15.981 5.43374 17.2278 4.72219C18.4746 4.01065 19.8694 3.58837 21.3063 3.48737Z" stroke="#571CFF" stroke-width="2.5" stroke-linecap="round" stroke-linejoin="round"/>
</svg>
