<svg width="270" height="152" viewBox="0 0 270 152" fill="none" xmlns="http://www.w3.org/2000/svg">
<g filter="url(#filter0_i)">
<rect x="1" y="1" width="143" height="56" rx="15" fill="#2E2D33" stroke="#FF9900" stroke-width="2"/>
<path d="M21.8431 29.4346L22.1925 29.8354L22.5711 29.4619L29.0332 23.0865C29.8072 22.3229 31.1123 22.301 31.9149 23.0439C32.6787 23.7507 32.6954 24.8829 31.9595 25.6089L23.5419 33.9135C23.1518 34.2985 22.593 34.5198 22.0014 34.4986C21.4101 34.4775 20.8735 34.2174 20.5177 33.8094L16.9423 29.709C16.2733 28.9417 16.3679 27.812 17.195 27.1535C18.0621 26.4632 19.3601 26.587 20.0645 27.3948L21.8431 29.4346Z" fill="#FF9900" stroke="#2E2D33"/>
<rect x="43" y="21" width="84" height="3" rx="1.5" fill="#403E45"/>
<rect x="43" y="33" width="84" height="3" rx="1.5" fill="#403E45"/>
</g>
<g filter="url(#filter1_i)">
<rect x="11" y="77" width="108.5" height="42.2" rx="15" fill="#2E2D33" stroke="#FF9900" stroke-width="2"/>
<path d="M26.556 98.5095L26.9055 98.9103L27.284 98.5368L32.2086 93.6783C32.7531 93.1411 33.6752 93.1254 34.2404 93.6484C34.7727 94.1411 34.784 94.9256 34.2716 95.4311L27.8568 101.76L28.208 102.116L27.8568 101.76C27.5834 102.03 27.1895 102.187 26.7706 102.172C26.3519 102.157 25.9742 101.972 25.7254 101.687L23.0007 98.5622C22.5359 98.0292 22.5997 97.2461 23.1777 96.786C23.7892 96.2991 24.7061 96.388 25.2006 96.955L26.556 98.5095Z" fill="#FF9900" stroke="#2E2D33"/>
<rect x="42.7686" y="92.0029" width="64.0138" height="2.28621" rx="1.1431" fill="#403E45"/>
<rect x="42.7686" y="101.147" width="64.0138" height="2.28621" rx="1.1431" fill="#403E45"/>
</g>
<g filter="url(#filter2_i)">
<rect x="134" y="103" width="121" height="47.2" rx="15" fill="#2E2D33" stroke="#FF9900" stroke-width="2"/>
<path d="M151.472 127.019L151.821 127.419L152.2 127.046L157.681 121.638C158.309 121.019 159.37 121.001 160.021 121.603C160.637 122.174 160.65 123.084 160.057 123.669L152.917 130.714C152.601 131.026 152.147 131.206 151.666 131.189C151.185 131.171 150.749 130.96 150.462 130.63L147.429 127.152C146.89 126.534 146.965 125.625 147.633 125.093C148.337 124.532 149.392 124.634 149.963 125.288L151.472 127.019Z" fill="#FF9900" stroke="#2E2D33"/>
<rect x="169.476" y="119.813" width="71.2552" height="2.54483" rx="1.27241" fill="#403E45"/>
<rect x="169.476" y="129.992" width="71.2552" height="2.54483" rx="1.27241" fill="#403E45"/>
</g>
<g filter="url(#filter3_i)">
<rect x="155" y="37" width="114" height="44.4" rx="15" fill="#2E2D33" stroke="#FF9900" stroke-width="2"/>
<path d="M171.399 59.613L171.748 60.0138L172.127 59.6403L177.297 54.54C177.878 53.9667 178.861 53.9501 179.464 54.5081C180.033 55.0349 180.045 55.8748 179.497 56.4155L172.763 63.0593C172.471 63.3474 172.051 63.5145 171.605 63.4986C171.158 63.4826 170.755 63.2864 170.489 62.9814L167.629 59.7011C167.132 59.1307 167.2 58.2924 167.818 57.8006C168.47 57.2813 169.448 57.3757 169.976 57.9812L171.399 59.613Z" fill="#FF9900" stroke="#2E2D33"/>
<rect x="188.4" y="52.7998" width="67.2" height="2.4" rx="1.2" fill="#403E45"/>
<rect x="188.4" y="62.3994" width="67.2" height="2.4" rx="1.2" fill="#403E45"/>
</g>
<defs>
<filter id="filter0_i" x="0" y="0" width="145" height="58" filterUnits="userSpaceOnUse" color-interpolation-filters="sRGB">
<feFlood flood-opacity="0" result="BackgroundImageFix"/>
<feBlend mode="normal" in="SourceGraphic" in2="BackgroundImageFix" result="shape"/>
<feColorMatrix in="SourceAlpha" type="matrix" values="0 0 0 0 0 0 0 0 0 0 0 0 0 0 0 0 0 0 127 0" result="hardAlpha"/>
<feOffset dy="-4"/>
<feComposite in2="hardAlpha" operator="arithmetic" k2="-1" k3="1"/>
<feColorMatrix type="matrix" values="0 0 0 0 1 0 0 0 0 0.6 0 0 0 0 0 0 0 0 1 0"/>
<feBlend mode="normal" in2="shape" result="effect1_innerShadow"/>
</filter>
<filter id="filter1_i" x="10" y="76" width="110.5" height="44.2" filterUnits="userSpaceOnUse" color-interpolation-filters="sRGB">
<feFlood flood-opacity="0" result="BackgroundImageFix"/>
<feBlend mode="normal" in="SourceGraphic" in2="BackgroundImageFix" result="shape"/>
<feColorMatrix in="SourceAlpha" type="matrix" values="0 0 0 0 0 0 0 0 0 0 0 0 0 0 0 0 0 0 127 0" result="hardAlpha"/>
<feOffset dy="-4"/>
<feComposite in2="hardAlpha" operator="arithmetic" k2="-1" k3="1"/>
<feColorMatrix type="matrix" values="0 0 0 0 1 0 0 0 0 0.6 0 0 0 0 0 0 0 0 1 0"/>
<feBlend mode="normal" in2="shape" result="effect1_innerShadow"/>
</filter>
<filter id="filter2_i" x="133" y="102" width="123" height="49.2" filterUnits="userSpaceOnUse" color-interpolation-filters="sRGB">
<feFlood flood-opacity="0" result="BackgroundImageFix"/>
<feBlend mode="normal" in="SourceGraphic" in2="BackgroundImageFix" result="shape"/>
<feColorMatrix in="SourceAlpha" type="matrix" values="0 0 0 0 0 0 0 0 0 0 0 0 0 0 0 0 0 0 127 0" result="hardAlpha"/>
<feOffset dy="-4"/>
<feComposite in2="hardAlpha" operator="arithmetic" k2="-1" k3="1"/>
<feColorMatrix type="matrix" values="0 0 0 0 1 0 0 0 0 0.6 0 0 0 0 0 0 0 0 1 0"/>
<feBlend mode="normal" in2="shape" result="effect1_innerShadow"/>
</filter>
<filter id="filter3_i" x="154" y="36" width="116" height="46.4" filterUnits="userSpaceOnUse" color-interpolation-filters="sRGB">
<feFlood flood-opacity="0" result="BackgroundImageFix"/>
<feBlend mode="normal" in="SourceGraphic" in2="BackgroundImageFix" result="shape"/>
<feColorMatrix in="SourceAlpha" type="matrix" values="0 0 0 0 0 0 0 0 0 0 0 0 0 0 0 0 0 0 127 0" result="hardAlpha"/>
<feOffset dy="-4"/>
<feComposite in2="hardAlpha" operator="arithmetic" k2="-1" k3="1"/>
<feColorMatrix type="matrix" values="0 0 0 0 1 0 0 0 0 0.6 0 0 0 0 0 0 0 0 1 0"/>
<feBlend mode="normal" in2="shape" result="effect1_innerShadow"/>
</filter>
</defs>
</svg>
