<svg width="270" height="152" viewBox="0 0 270 152" fill="none" xmlns="http://www.w3.org/2000/svg">
<g filter="url(#filter0_i)">
<rect x="1" y="1" width="143" height="56" rx="15" fill="white" stroke="#FF9900" stroke-width="2"/>
<path d="M21.8431 29.4346L22.1925 29.8354L22.5711 29.4619L29.0332 23.0865C29.8072 22.3229 31.1123 22.301 31.9149 23.0439C32.6787 23.7507 32.6954 24.8829 31.9595 25.6089L23.5419 33.9135C23.1518 34.2985 22.593 34.5198 22.0014 34.4986C21.4101 34.4775 20.8735 34.2174 20.5177 33.8094L16.9423 29.709C16.2733 28.9417 16.3679 27.812 17.195 27.1535C18.0621 26.4632 19.3601 26.587 20.0645 27.3948L21.8431 29.4346Z" fill="#FF9900" stroke="white"/>
<rect x="43" y="21" width="84" height="3" rx="1.5" fill="#DFDFDF"/>
<rect x="43" y="33" width="84" height="3" rx="1.5" fill="#DFDFDF"/>
</g>
<g filter="url(#filter1_i)">
<rect x="11" y="77" width="108.5" height="42.2" rx="15" fill="white" stroke="#FF9900" stroke-width="2"/>
<path d="M26.5565 98.5094L26.906 98.9102L27.2845 98.5367L32.2091 93.6781C32.7536 93.141 33.6757 93.1253 34.2408 93.6483C34.7732 94.141 34.7845 94.9255 34.2721 95.431L27.8573 101.76L28.2084 102.116L27.8573 101.76C27.5839 102.03 27.19 102.186 26.7711 102.171C26.3524 102.156 25.9747 101.972 25.7259 101.687L23.0011 98.5621C22.5364 98.0291 22.6002 97.246 23.1782 96.7859C23.7897 96.299 24.7066 96.3878 25.2011 96.9549L26.5565 98.5094Z" fill="#FF9900" stroke="white"/>
<rect x="42.7686" y="92.0032" width="64.0138" height="2.28621" rx="1.1431" fill="#DFDFDF"/>
<rect x="42.7686" y="101.148" width="64.0138" height="2.28621" rx="1.1431" fill="#DFDFDF"/>
</g>
<g filter="url(#filter2_i)">
<rect x="134" y="103" width="121" height="47.2" rx="15" fill="white" stroke="#FF9900" stroke-width="2"/>
<path d="M151.472 127.019L151.821 127.419L152.2 127.046L157.681 121.638C158.309 121.019 159.37 121.001 160.021 121.603C160.637 122.174 160.65 123.084 160.057 123.669L152.917 130.714C152.601 131.026 152.147 131.206 151.666 131.189C151.185 131.171 150.749 130.96 150.462 130.63L147.429 127.152C146.89 126.534 146.965 125.625 147.633 125.093C148.337 124.532 149.392 124.634 149.963 125.288L151.472 127.019Z" fill="#FF9900" stroke="white"/>
<rect x="169.476" y="119.814" width="71.2552" height="2.54483" rx="1.27241" fill="#DFDFDF"/>
<rect x="169.476" y="129.993" width="71.2552" height="2.54483" rx="1.27241" fill="#DFDFDF"/>
</g>
<g filter="url(#filter3_i)">
<rect x="155" y="37" width="114" height="44.4" rx="15" fill="white" stroke="#FF9900" stroke-width="2"/>
<path d="M171.399 59.6134L171.748 60.0142L172.127 59.6407L177.297 54.5403C177.878 53.9671 178.861 53.9504 179.464 54.5085C180.033 55.0353 180.045 55.8752 179.497 56.4159L172.763 63.0596C172.471 63.3477 172.051 63.5149 171.605 63.4989C171.158 63.483 170.755 63.2867 170.489 62.9818L167.629 59.7015C167.132 59.1311 167.2 58.2928 167.818 57.801C168.47 57.2817 169.448 57.3761 169.976 57.9816L171.399 59.6134Z" fill="#FF9900" stroke="white"/>
<rect x="188.4" y="52.8" width="67.2" height="2.4" rx="1.2" fill="#DFDFDF"/>
<rect x="188.4" y="62.3997" width="67.2" height="2.4" rx="1.2" fill="#DFDFDF"/>
</g>
<defs>
<filter id="filter0_i" x="0" y="0" width="145" height="58" filterUnits="userSpaceOnUse" color-interpolation-filters="sRGB">
<feFlood flood-opacity="0" result="BackgroundImageFix"/>
<feBlend mode="normal" in="SourceGraphic" in2="BackgroundImageFix" result="shape"/>
<feColorMatrix in="SourceAlpha" type="matrix" values="0 0 0 0 0 0 0 0 0 0 0 0 0 0 0 0 0 0 127 0" result="hardAlpha"/>
<feOffset dy="-4"/>
<feComposite in2="hardAlpha" operator="arithmetic" k2="-1" k3="1"/>
<feColorMatrix type="matrix" values="0 0 0 0 1 0 0 0 0 0.6 0 0 0 0 0 0 0 0 1 0"/>
<feBlend mode="normal" in2="shape" result="effect1_innerShadow"/>
</filter>
<filter id="filter1_i" x="10" y="76" width="110.5" height="44.2" filterUnits="userSpaceOnUse" color-interpolation-filters="sRGB">
<feFlood flood-opacity="0" result="BackgroundImageFix"/>
<feBlend mode="normal" in="SourceGraphic" in2="BackgroundImageFix" result="shape"/>
<feColorMatrix in="SourceAlpha" type="matrix" values="0 0 0 0 0 0 0 0 0 0 0 0 0 0 0 0 0 0 127 0" result="hardAlpha"/>
<feOffset dy="-4"/>
<feComposite in2="hardAlpha" operator="arithmetic" k2="-1" k3="1"/>
<feColorMatrix type="matrix" values="0 0 0 0 1 0 0 0 0 0.6 0 0 0 0 0 0 0 0 1 0"/>
<feBlend mode="normal" in2="shape" result="effect1_innerShadow"/>
</filter>
<filter id="filter2_i" x="133" y="102" width="123" height="49.2" filterUnits="userSpaceOnUse" color-interpolation-filters="sRGB">
<feFlood flood-opacity="0" result="BackgroundImageFix"/>
<feBlend mode="normal" in="SourceGraphic" in2="BackgroundImageFix" result="shape"/>
<feColorMatrix in="SourceAlpha" type="matrix" values="0 0 0 0 0 0 0 0 0 0 0 0 0 0 0 0 0 0 127 0" result="hardAlpha"/>
<feOffset dy="-4"/>
<feComposite in2="hardAlpha" operator="arithmetic" k2="-1" k3="1"/>
<feColorMatrix type="matrix" values="0 0 0 0 1 0 0 0 0 0.6 0 0 0 0 0 0 0 0 1 0"/>
<feBlend mode="normal" in2="shape" result="effect1_innerShadow"/>
</filter>
<filter id="filter3_i" x="154" y="36" width="116" height="46.4" filterUnits="userSpaceOnUse" color-interpolation-filters="sRGB">
<feFlood flood-opacity="0" result="BackgroundImageFix"/>
<feBlend mode="normal" in="SourceGraphic" in2="BackgroundImageFix" result="shape"/>
<feColorMatrix in="SourceAlpha" type="matrix" values="0 0 0 0 0 0 0 0 0 0 0 0 0 0 0 0 0 0 127 0" result="hardAlpha"/>
<feOffset dy="-4"/>
<feComposite in2="hardAlpha" operator="arithmetic" k2="-1" k3="1"/>
<feColorMatrix type="matrix" values="0 0 0 0 1 0 0 0 0 0.6 0 0 0 0 0 0 0 0 1 0"/>
<feBlend mode="normal" in2="shape" result="effect1_innerShadow"/>
</filter>
</defs>
</svg>
