<svg width="24" height="24" viewBox="0 0 24 24" fill="none" xmlns="http://www.w3.org/2000/svg">
<path d="M4 4.47607V13.7708C5.0014 12.8247 6.34775 12.2947 7.75 12.2947C9.15225 12.2947 10.4986 12.8247 11.5 13.7708C12.5014 14.7169 13.8478 15.2469 15.25 15.2469C16.6522 15.2469 17.9986 14.7169 19 13.7708V4.47607C17.9986 5.4222 16.6522 5.95218 15.25 5.95218C13.8478 5.95218 12.5014 5.42222 11.5 4.47609C10.4986 3.52995 9.15225 3 7.75 3C6.34775 3 5.0014 3.52994 4 4.47607Z" fill="#A4A4A4" fill-opacity="0.3"/>
<path d="M4 4.47607V21M4 4.47607C5.0014 3.52994 6.34775 3 7.75 3C9.15225 3 10.4986 3.52995 11.5 4.47609C12.5014 5.42222 13.8478 5.95218 15.25 5.95218C16.6522 5.95218 17.9986 5.4222 19 4.47607V13.7708C17.9986 14.7169 16.6522 15.2469 15.25 15.2469C13.8478 15.2469 12.5014 14.7169 11.5 13.7708C10.4986 12.8247 9.15225 12.2947 7.75 12.2947C6.34775 12.2947 5.0014 12.8247 4 13.7708V4.47607Z" stroke="#A4A4A4" stroke-width="1.5" stroke-linecap="round" stroke-linejoin="round"/>
</svg>
