<svg width="14" height="21" viewBox="0 0 14 21" fill="none" xmlns="http://www.w3.org/2000/svg">
<path d="M13 13.6669C12.9999 14.6665 12.7756 15.6519 12.3456 16.5425C11.9156 17.4331 11.292 18.2036 10.5259 18.791C9.7597 19.3784 8.87272 19.766 7.93744 19.9222C7.00216 20.0784 6.04514 19.9987 5.14464 19.6896C4.24414 19.3805 3.42573 18.8507 2.75633 18.1437C2.08692 17.4367 1.58554 16.5725 1.29317 15.6217C1.0008 14.671 0.925743 13.6606 1.07414 12.6734C1.22254 11.6861 1.59018 10.75 2.147 9.94144C4.073 7.4733 6.91 6.42926 5.995 1C8.35 2.85902 11.835 6.67945 8.017 10.9295C6.881 12.0813 7.773 13.8505 9.238 13.6669C10.12 13.556 11.261 12.6471 12.468 11.2388C13 11.9567 13 13.0514 13 13.6669Z" fill="#EF4439" fill-opacity="0.3" stroke="#EF4439" stroke-width="2" stroke-linecap="round" stroke-linejoin="round"/>
</svg>
