<svg width="19" height="21" viewBox="0 0 19 21" fill="none" xmlns="http://www.w3.org/2000/svg">
<path d="M5.25 3.11111H3.125C1.95139 3.11111 1 4.05629 1 5.22222V9.44444H18V5.22222C18 4.05629 17.0486 3.11111 15.875 3.11111H13.75H5.25Z" fill="#571CFF" fill-opacity="0.3"/>
<path d="M18 5.22222C18 4.05629 17.0486 3.11111 15.875 3.11111H13.75M18 5.22222V17.8889C18 19.0548 17.0486 20 15.875 20H3.125C1.95139 20 1 19.0548 1 17.8889V5.22222M18 5.22222V9.44444H1V5.22222M1 5.22222C1 4.05629 1.95139 3.11111 3.125 3.11111H5.25M13.75 1V3.11111M13.75 5.22222V3.11111M5.25 1V3.11111M5.25 5.22222V3.11111M7.375 14.7222H11.625M9.5 12.6111V16.8333M5.25 3.11111H13.75" stroke="#571CFF" stroke-width="2" stroke-linecap="round" stroke-linejoin="round"/>
</svg>
