<svg width="23" height="25" viewBox="0 0 23 25" fill="none" xmlns="http://www.w3.org/2000/svg">
<path d="M6.75 4.33333H4.375C3.06332 4.33333 2 5.378 2 6.66667V11.3333H21V6.66667C21 5.378 19.9367 4.33333 18.625 4.33333H16.25H6.75Z" fill="#447BFE" fill-opacity="0.3"/>
<path d="M21 6.66667C21 5.378 19.9367 4.33333 18.625 4.33333H16.25M21 6.66667V20.6667C21 21.9553 19.9367 23 18.625 23H4.375C3.06332 23 2 21.9553 2 20.6667V6.66667M21 6.66667V11.3333H2V6.66667M2 6.66667C2 5.378 3.06332 4.33333 4.375 4.33333H6.75M16.25 2V4.33333M16.25 6.66667V4.33333M6.75 2V4.33333M6.75 6.66667V4.33333M6.75 4.33333H16.25M6.75 16H9.125V18.3333H6.75V16Z" stroke="#447BFE" stroke-width="2.5" stroke-linecap="round" stroke-linejoin="round"/>
</svg>
