<svg width="34" height="34" viewBox="0 0 34 34" fill="none" xmlns="http://www.w3.org/2000/svg">
<path d="M12 8.44444H9.5C8.11929 8.44444 7 9.53886 7 10.8889V15.7778H27V10.8889C27 9.53886 25.8807 8.44444 24.5 8.44444H22H12Z" fill="#447BFE" fill-opacity="0.3"/>
<path d="M27 10.8889C27 9.53886 25.8807 8.44444 24.5 8.44444H22M27 10.8889V25.5556C27 26.9056 25.8807 28 24.5 28H9.5C8.11929 28 7 26.9056 7 25.5556V10.8889M27 10.8889V15.7778H7V10.8889M7 10.8889C7 9.53886 8.11929 8.44444 9.5 8.44444H12M22 6V8.44444M22 10.8889V8.44444M12 6V8.44444M12 10.8889V8.44444M12 8.44444H22M13 22H13.5M12 20.6667H14.5V23.1111H12V20.6667Z" stroke="#447BFE" stroke-width="2" stroke-linecap="round" stroke-linejoin="round"/>
</svg>
