<svg width="34" height="34" viewBox="0 0 34 34" fill="none" xmlns="http://www.w3.org/2000/svg">
<path d="M8 7.80409V19.1643C9.20169 18.0079 10.8173 17.3602 12.5 17.3602C14.1827 17.3602 15.7983 18.0079 17 19.1643C18.2017 20.3207 19.8173 20.9684 21.5 20.9684C23.1827 20.9684 24.7983 20.3207 26 19.1643V7.80409C24.7983 8.96047 23.1827 9.60822 21.5 9.60822C19.8173 9.60822 18.2017 8.96049 17 7.80411C15.7983 6.64772 14.1827 6 12.5 6C10.8173 6 9.20169 6.6477 8 7.80409Z" fill="#EF4439" fill-opacity="0.3"/>
<path d="M8 7.80409V28M8 7.80409C9.20169 6.6477 10.8173 6 12.5 6C14.1827 6 15.7983 6.64772 17 7.80411C18.2017 8.96049 19.8173 9.60822 21.5 9.60822C23.1827 9.60822 24.7983 8.96047 26 7.80409V19.1643C24.7983 20.3207 23.1827 20.9684 21.5 20.9684C19.8173 20.9684 18.2017 20.3207 17 19.1643C15.7983 18.0079 14.1827 17.3602 12.5 17.3602C10.8173 17.3602 9.20169 18.0079 8 19.1643V7.80409Z" stroke="#EF4439" stroke-width="2" stroke-linecap="round" stroke-linejoin="round"/>
</svg>
