<svg width="193" height="212" viewBox="0 0 193 212" fill="none" xmlns="http://www.w3.org/2000/svg">
<g filter="url(#filter0_ii)">
<path d="M51.3368 28.2222H28.6684C16.149 28.2222 6 38.1715 6 50.4444V93.8889C6 94.4412 6.44772 94.8889 7 94.8889H186.347C186.899 94.8889 187.347 94.4412 187.347 93.8889V50.4444C187.347 38.1715 177.198 28.2222 164.679 28.2222H142.01H51.3368Z" fill="#447BFE" fill-opacity="0.3"/>
<path d="M51.3368 140.333C51.3368 139.781 51.7845 139.333 52.3368 139.333H73.0052C73.5575 139.333 74.0052 139.781 74.0052 140.333V160.556C74.0052 161.108 73.5575 161.556 73.0052 161.556H52.3368C51.7845 161.556 51.3368 161.108 51.3368 160.556V140.333Z" fill="#447BFE" fill-opacity="0.3"/>
<path d="M187.347 50.4444C187.347 38.1715 177.198 28.2222 164.679 28.2222H142.01M187.347 50.4444V183.778C187.347 196.051 177.198 206 164.679 206H28.6684C16.149 206 6 196.051 6 183.778V50.4444M187.347 50.4444V93.8889C187.347 94.4412 186.899 94.8889 186.347 94.8889H7C6.44772 94.8889 6 94.4412 6 93.8889V50.4444M6 50.4444C6 38.1715 16.149 28.2222 28.6684 28.2222H51.3368M142.01 6V28.2222M142.01 50.4444V28.2222M51.3368 6V28.2222M51.3368 50.4444V28.2222M51.3368 28.2222H142.01M52.3368 161.556H73.0052C73.5575 161.556 74.0052 161.108 74.0052 160.556V140.333C74.0052 139.781 73.5575 139.333 73.0052 139.333H52.3368C51.7845 139.333 51.3368 139.781 51.3368 140.333V160.556C51.3368 161.108 51.7845 161.556 52.3368 161.556Z" stroke="#447BFE" stroke-width="11" stroke-linecap="round" stroke-linejoin="round"/>
<rect x="51.0557" y="139.387" width="21.3385" height="22.7152" rx="1" fill="#447BFE"/>
</g>
<defs>
<filter id="filter0_ii" x="-3.5" y="-2.5" width="196.347" height="214" filterUnits="userSpaceOnUse" color-interpolation-filters="sRGB">
<feFlood flood-opacity="0" result="BackgroundImageFix"/>
<feBlend mode="normal" in="SourceGraphic" in2="BackgroundImageFix" result="shape"/>
<feColorMatrix in="SourceAlpha" type="matrix" values="0 0 0 0 0 0 0 0 0 0 0 0 0 0 0 0 0 0 127 0" result="hardAlpha"/>
<feOffset dx="-4" dy="-2"/>
<feGaussianBlur stdDeviation="2"/>
<feComposite in2="hardAlpha" operator="arithmetic" k2="-1" k3="1"/>
<feColorMatrix type="matrix" values="0 0 0 0 0.604167 0 0 0 0 0.721214 0 0 0 0 1 0 0 0 0.2 0"/>
<feBlend mode="normal" in2="shape" result="effect1_innerShadow"/>
<feColorMatrix in="SourceAlpha" type="matrix" values="0 0 0 0 0 0 0 0 0 0 0 0 0 0 0 0 0 0 127 0" result="hardAlpha"/>
<feOffset dy="-3"/>
<feGaussianBlur stdDeviation="3"/>
<feComposite in2="hardAlpha" operator="arithmetic" k2="-1" k3="1"/>
<feColorMatrix type="matrix" values="0 0 0 0 0 0 0 0 0 0.0677643 0 0 0 0 0.229167 0 0 0 0.05 0"/>
<feBlend mode="normal" in2="effect1_innerShadow" result="effect2_innerShadow"/>
</filter>
</defs>
</svg>
