<svg width="190" height="190" viewBox="0 0 190 190" fill="none" xmlns="http://www.w3.org/2000/svg">
<path d="M6.82344 105.418L35.8708 106.107L71.8341 139.204H116.097L150.677 106.107L183.874 105.418L182.491 170.232L168.658 182.644H17.1975L6.13184 172.301L6.82344 105.418Z" fill="#571CFF" fill-opacity="0.3"/>
<g filter="url(#filter0_ii)">
<path fill-rule="evenodd" clip-rule="evenodd" d="M190 28.4021C190 12.716 177.284 0 161.598 0H28.4021C12.716 0 0 12.716 0 28.4021V161.598C0 177.284 12.716 190 28.4021 190H161.598C177.284 190 190 177.284 190 161.598V28.4021ZM12.4055 28.4021C12.4055 19.5674 19.5674 12.4055 28.4021 12.4055H161.598C170.433 12.4055 177.595 19.5674 177.595 28.4021V99.8969H150.498C148.853 99.8969 147.276 100.55 146.112 101.714L114.63 133.196H75.3699L43.8877 101.714C42.7245 100.55 41.1468 99.8969 39.5017 99.8969H12.4055V28.4021ZM153.068 112.302H177.595V161.598C177.595 170.433 170.433 177.595 161.598 177.595H28.4021C19.5674 177.595 12.4055 170.433 12.4055 161.598V112.302H36.9325L68.4147 143.785C69.5779 144.948 71.1556 145.601 72.8007 145.601H117.199C118.844 145.601 120.422 144.948 121.585 143.785L153.068 112.302Z" fill="#6D39FF"/>
</g>
<defs>
<filter id="filter0_ii" x="-3" y="-3" width="193" height="193" filterUnits="userSpaceOnUse" color-interpolation-filters="sRGB">
<feFlood flood-opacity="0" result="BackgroundImageFix"/>
<feBlend mode="normal" in="SourceGraphic" in2="BackgroundImageFix" result="shape"/>
<feColorMatrix in="SourceAlpha" type="matrix" values="0 0 0 0 0 0 0 0 0 0 0 0 0 0 0 0 0 0 127 0" result="hardAlpha"/>
<feOffset dx="-4" dy="-2"/>
<feGaussianBlur stdDeviation="1.5"/>
<feComposite in2="hardAlpha" operator="arithmetic" k2="-1" k3="1"/>
<feColorMatrix type="matrix" values="0 0 0 0 0.540529 0 0 0 0 0.379167 0 0 0 0 1 0 0 0 0.25 0"/>
<feBlend mode="normal" in2="shape" result="effect1_innerShadow"/>
<feColorMatrix in="SourceAlpha" type="matrix" values="0 0 0 0 0 0 0 0 0 0 0 0 0 0 0 0 0 0 127 0" result="hardAlpha"/>
<feOffset dy="-3"/>
<feGaussianBlur stdDeviation="3"/>
<feComposite in2="hardAlpha" operator="arithmetic" k2="-1" k3="1"/>
<feColorMatrix type="matrix" values="0 0 0 0 0.23717 0 0 0 0 0 0 0 0 0 0.9125 0 0 0 0.05 0"/>
<feBlend mode="normal" in2="effect1_innerShadow" result="effect2_innerShadow"/>
</filter>
</defs>
</svg>
