<svg width="20" height="17" viewBox="0 0 20 17" fill="none" xmlns="http://www.w3.org/2000/svg">
<path d="M10.0001 16.0001L3.0001 9.0001C2.60613 8.57331 2.30009 8.07309 2.09944 7.52802C1.89879 6.98295 1.80747 6.40369 1.83068 5.82333C1.87757 4.65122 2.38815 3.54575 3.2501 2.7501C4.11205 1.95445 5.25477 1.5338 6.42688 1.58069C7.59898 1.62757 8.70445 2.13815 9.5001 3.0001C9.6481 3.09899 9.8221 3.15177 10.0001 3.15177C10.1781 3.15177 10.3521 3.09899 10.5001 3.0001C11.2957 2.13815 12.4012 1.62757 13.5733 1.58069C14.7454 1.5338 15.8881 1.95445 16.7501 2.7501C17.6121 3.54575 18.1226 4.65122 18.1695 5.82333C18.2164 6.99543 17.7957 8.13815 17.0001 9.0001L10.0001 16.0001Z" stroke="#EF4439" stroke-width="2" stroke-linecap="round" stroke-linejoin="round"/>
</svg>
